<svg width="34" height="32" viewBox="0 0 34 32" fill="none" xmlns="http://www.w3.org/2000/svg">
<path d="M11.4569 13.6744C11.1779 13.9535 10.6197 14.1395 10.1546 14.1395C9.96856 14.0465 9.68949 13.8605 9.41042 13.7674H9.13135C8.94531 13.7674 8.75926 13.8605 8.66623 13.9535L8.38716 14.2326C8.29414 14.4186 8.29414 14.6047 8.38716 14.7907C8.48019 14.9767 8.85228 15.2558 8.85228 15.2558C8.85228 15.2558 8.98428 15.3302 9.13135 15.3488C9.59647 15.6279 10.0616 16.093 10.3407 16.5581C10.8058 17.5814 10.6197 17.8605 9.87554 18.6977L9.59647 18.9767C9.41042 19.2558 9.41042 19.5349 9.50344 19.907C9.59647 20.186 9.87554 20.3721 10.3407 20.3721H10.8058C10.8988 20.2791 11.0848 20.186 11.1779 20.093C12.5732 18.6977 12.9453 17.4884 12.0151 15.6279C11.922 15.4419 11.829 15.3488 11.736 15.2558C12.1081 15.0698 12.5732 14.8837 12.8523 14.5116C13.4104 13.9535 13.8755 13.1163 14.0616 12.2791C14.1546 11.907 13.8755 11.5349 13.5034 11.4419H13.4104C13.0383 11.4419 12.6662 11.7209 12.6662 12C12.2011 12.9302 11.829 13.3954 11.4569 13.6744ZM23.643 21.1163C24.8523 21.1163 25.7825 20.186 25.7825 18.9767C25.7825 17.7674 24.8523 16.8372 23.643 16.8372C22.6197 16.8372 21.8755 17.5814 21.5965 18.4186H18.8988V19.5349H21.5965C21.8755 20.4651 22.6197 21.1163 23.643 21.1163ZM25.3174 10.6977H27.9221C28.1081 11.6279 29.0383 12.2791 29.9686 12.2791C31.1779 12.2791 32.1081 11.3488 32.1081 10.1395C32.1081 8.93023 31.1779 8 29.9686 8C28.9453 8 28.2011 8.74419 27.9221 9.5814H24.7593L22.0616 13.7674H18.8058V14.8837H22.6197L25.3174 10.6977ZM23.643 7.72093C24.8523 7.72093 25.7825 6.7907 25.7825 5.5814C25.7825 4.37209 24.8523 3.44186 23.643 3.44186C22.6197 3.44186 21.8755 4.18605 21.5965 5.02326H18.8988V6.13954H21.5965C21.8755 7.16279 22.6197 7.72093 23.643 7.72093ZM26.2476 26.6047C25.2244 26.6047 24.4802 27.3488 24.2011 28.186H18.8058V29.3023H24.2011C24.3872 30.2326 25.3174 30.8837 26.2476 30.8837C27.4569 30.8837 28.3872 29.9535 28.3872 28.7442C28.3872 27.5349 27.4569 26.6047 26.2476 26.6047ZM30.8058 16.9302C29.5965 16.9302 28.6662 17.8605 28.6662 19.0698C28.6662 19.6279 28.8523 20.186 29.2244 20.5581L27.643 23.0698H18.8988V24.093H28.2941L30.3407 21.1163C30.5267 21.1163 30.7127 21.2093 30.8988 21.2093C32.1081 21.2093 33.0383 20.2791 33.0383 19.0698C32.9453 17.8605 31.922 16.9302 30.8058 16.9302ZM11.922 0H11.1779C8.94531 0.27907 6.99182 2.23256 6.71275 4.55814C5.59647 4.65116 4.66623 4.93023 3.82902 5.67442C1.87554 7.06977 1.22437 9.67442 2.06158 11.907C2.15461 12.093 2.15461 12.186 2.24763 12.3721C2.15461 12.3721 2.15461 12.4651 2.06158 12.4651C0.108094 13.8605 -0.543068 15.4419 0.480188 17.6744C0.852281 18.6977 1.59647 19.4419 2.5267 20.093C1.87554 21.7674 1.96856 23.5349 2.99182 25.1163C3.82903 26.3256 5.13135 27.2558 6.61972 27.4419C6.80577 28.6512 7.36391 29.7674 8.1081 30.6047C8.9453 31.4419 10.6197 32 12.2011 32C12.9453 32 13.5034 31.907 13.9686 31.7209C15.643 30.9767 16.5732 29.3953 16.6662 28.186V3.62791C16.2011 1.39535 14.2476 0 11.922 0ZM13.4104 6.23256C13.2244 5.95349 12.9453 5.76744 12.5732 5.76744C12.3872 5.76744 12.2941 5.76744 12.1081 5.86047C11.736 6.04651 11.55 6.69768 11.736 7.06977C12.2011 8.18605 13.1314 9.02326 14.2476 9.5814C14.5267 9.76744 14.9918 9.86047 15.2709 9.86047V27.814C15.1779 28.6512 14.2476 29.3023 13.5034 29.5814C13.1314 29.7674 12.6662 29.7674 12.2011 29.7674C11.1779 29.7674 10.0616 29.3953 9.50344 28.7442C9.03833 28.2791 8.66623 27.6279 8.66623 26.9767C8.57321 26.5116 8.66623 25.9535 8.75926 25.5814C8.75926 25.4884 8.85228 25.3023 8.9453 25.2093C9.3174 24.3721 9.96856 23.814 10.7127 23.5349C10.8988 23.4419 11.0848 23.2558 11.1779 23.0698C11.2709 22.8837 11.2709 22.6047 11.1779 22.3256C10.9918 22.0465 10.7127 21.7674 10.2476 21.7674C10.1546 21.7674 10.0616 21.7674 9.96856 21.8605C8.85228 22.2326 7.82903 23.0698 7.27089 24.186C7.08484 24.5581 6.89879 25.1163 6.80577 25.4884C5.96856 25.2093 5.22437 24.5581 4.66623 23.814C3.92205 22.6047 4.1081 21.1163 4.85228 20.093C5.3174 19.3488 6.15461 18.9767 6.99182 18.7907C7.27088 18.7907 7.45693 18.6047 7.54995 18.4186C7.64298 18.2326 7.736 17.9535 7.64298 17.6744C7.54995 17.3023 7.17786 16.8372 6.71275 16.8372H6.61972C5.41042 17.0233 4.38717 17.5814 3.64298 18.4186C3.08484 18.0465 2.5267 17.3953 2.24763 16.7442C1.87554 15.4419 2.24763 15.0698 3.27089 14.1395C3.45693 14.1395 3.54996 14.0465 3.64298 13.9535C3.92205 14.2326 4.20112 14.4186 4.66623 14.6977C4.75926 14.7907 4.9453 14.7907 5.03833 14.7907C5.3174 14.7907 5.59647 14.6047 5.87554 14.3256C6.15461 13.9535 5.96856 13.3023 5.59647 13.0233L5.50344 12.9302C5.03833 12.6512 4.57321 12.3721 4.29414 11.814C4.1081 11.5349 4.01507 11.3488 3.92205 11.0698C3.54995 9.76744 3.92205 8.37209 4.9453 7.44186C5.3174 6.7907 6.06158 6.51163 6.71275 6.41861C6.80577 6.97675 6.99182 7.53488 7.27089 8C7.54996 8.37209 7.82903 8.46512 8.1081 8.46512C8.29414 8.46512 8.38717 8.46512 8.57321 8.37209C8.75926 8.27907 8.9453 8.09302 9.03833 7.81395C9.13135 7.53488 9.03833 7.34884 8.9453 7.06977C8.9453 6.88372 8.85228 6.7907 8.75926 6.51163C8.57321 6.04651 8.38717 5.5814 8.57321 5.02326C8.57321 4.93023 8.57321 4.83721 8.66623 4.65116C8.9453 3.34884 9.96856 2.23256 11.3639 2.04651C11.55 1.95349 11.736 1.95349 11.922 1.95349C13.4104 1.95349 14.8058 2.97674 15.2709 4.46512V7.90698C14.3829 7.48697 13.9033 7.09516 13.4104 6.23256Z" fill="white"/>
</svg>
