<svg width="34" height="34" viewBox="0 0 34 34" fill="none" xmlns="http://www.w3.org/2000/svg">
    <mask id="path-1-outside-1_53_8871" maskUnits="userSpaceOnUse" x="1.125" y="1.104" width="30" height="31" fill="black">
    <rect fill="white" x="1.125" y="1.104" width="30" height="31"/>
    <path d="M21.0163 23.5705C20.6975 23.7447 20.4457 24.0252 20.3065 24.3642L18.0625 22.5675V19.2737L21.25 18.2112V15.7887L18.0625 14.7262V11.4325L20.9185 9.14811L21.5815 9.97686L19.125 11.9436V13.9623L22.3125 15.0248V18.9773L19.125 20.0398V22.0586L21.0163 23.5705ZM15.9375 30.8136V3.18749L9.775 5.44424C9.63369 5.51436 9.42119 5.79593 9.35 5.93724L8.35869 8.82724C8.21631 9.39036 7.72119 9.95349 7.225 10.2361L3.47119 12.3505C3.32881 12.4206 3.1875 12.6321 3.1875 12.7734V15.9375H4.34031C4.46563 15.583 4.71222 15.2843 5.03651 15.0941C5.36079 14.9038 5.74188 14.8344 6.11242 14.8979C6.48297 14.9615 6.81911 15.154 7.06143 15.4415C7.30376 15.7289 7.43666 16.0928 7.43666 16.4687C7.43666 16.8447 7.30376 17.2086 7.06143 17.496C6.81911 17.7834 6.48297 17.976 6.11242 18.0395C5.74188 18.1031 5.36079 18.0336 5.03651 17.8434C4.71222 17.6532 4.46563 17.3544 4.34031 17H3.1875V20.5243C3.1875 20.6646 3.32881 20.9472 3.47119 21.0874L7.29619 23.7649C7.72119 24.0476 8.21631 24.6819 8.35869 25.1749L9.35 28.0649C9.35 28.2763 9.63369 28.4877 9.775 28.5579L15.9375 30.8125V30.8136ZM17.3655 2.1898L23.528 4.44655L23.6342 4.49224C24.0061 4.67711 24.3568 5.10105 24.5363 5.45911L24.5926 5.59299L25.5839 8.48299C25.6689 8.80705 25.9526 9.15024 26.2374 9.31174L29.988 11.424C30.43 11.6429 30.8125 12.2134 30.8125 12.7734V20.5254C30.8125 20.9801 30.5426 21.5167 30.2175 21.8418L30.0762 21.9587L26.2512 24.6372C25.9962 24.8072 25.6668 25.2386 25.5999 25.4702L24.633 28.2933C24.5427 28.8734 24.1145 29.2729 23.6342 29.5099L23.528 29.5566L17.3655 31.8112C17.051 31.926 15.8865 31.926 15.572 31.8112L9.4095 29.5566L9.30325 29.5099C8.823 29.2729 8.39481 28.8724 8.3045 28.2933L7.33763 25.4702C7.27069 25.2386 6.94131 24.8062 6.68631 24.6372L2.86131 21.9597L2.72106 21.8418C2.39488 21.5156 2.125 20.9801 2.125 20.5243V12.7734C2.125 12.2134 2.5075 11.6429 2.9495 11.424L6.70013 9.31174C6.98488 9.15024 7.2675 8.80705 7.35356 8.48299L8.34488 5.59299L8.40119 5.45911C8.58181 5.10105 8.93031 4.67711 9.30325 4.49224L9.4095 4.44655L15.572 2.19086C15.8865 2.07505 17.051 2.07505 17.3655 2.19086V2.1898ZM17 3.18855V30.8136L23.1625 28.5589C23.3038 28.4888 23.5875 28.2774 23.5875 28.0659L24.5788 25.1759C24.7212 24.6829 25.2163 24.0486 25.6413 23.7671L29.4663 21.0896C29.6087 20.9482 29.75 20.6656 29.75 20.5254V17H28.5972C28.4719 17.3544 28.2253 17.6532 27.901 17.8434C27.5767 18.0336 27.1956 18.1031 26.8251 18.0395C26.4545 17.976 26.1184 17.7834 25.8761 17.496C25.6337 17.2086 25.5008 16.8447 25.5008 16.4687C25.5008 16.0928 25.6337 15.7289 25.8761 15.4415C26.1184 15.154 26.4545 14.9615 26.8251 14.8979C27.1956 14.8344 27.5767 14.9038 27.901 15.0941C28.2253 15.2843 28.4719 15.583 28.5972 15.9375H29.75V12.7712C29.75 12.631 29.6087 12.4206 29.4663 12.3494L25.7125 10.2361C25.2163 9.95455 24.7212 9.39036 24.5788 8.82724L23.5875 5.93724C23.5163 5.79593 23.3038 5.51436 23.1625 5.44424L17 3.18749V3.18855ZM12.631 9.63793L14.875 11.4325V14.7262L11.6875 15.7887V18.2112L14.875 19.2737V22.5675L12.631 24.3631C12.7739 24.7108 12.7893 25.0978 12.6745 25.4557C12.5597 25.8136 12.3221 26.1195 12.0037 26.3192C11.6852 26.5189 11.3064 26.5996 10.9342 26.5471C10.562 26.4946 10.2203 26.3122 9.9696 26.0322C9.71884 25.7521 9.57514 25.3925 9.56387 25.0168C9.55261 24.641 9.67451 24.2734 9.90803 23.9789C10.1416 23.6843 10.4717 23.4818 10.8401 23.4071C11.2085 23.3323 11.5914 23.3902 11.9213 23.5705L13.8125 22.0575V20.0387L10.625 18.9762V15.0237L13.8125 13.9612V11.9425L11.9213 10.4295C12.2389 10.2552 12.4918 9.97474 12.631 9.63686V9.63793ZM27.0938 17C26.9529 17 26.8177 16.944 26.7181 16.8444C26.6185 16.7448 26.5625 16.6096 26.5625 16.4687C26.5625 16.3278 26.6185 16.1927 26.7181 16.0931C26.8177 15.9935 26.9529 15.9375 27.0938 15.9375C27.2346 15.9375 27.3698 15.9935 27.4694 16.0931C27.569 16.1927 27.625 16.3278 27.625 16.4687C27.625 16.6096 27.569 16.7448 27.4694 16.8444C27.3698 16.944 27.2346 17 27.0938 17ZM21.7812 10.625C21.3586 10.625 20.9532 10.4571 20.6543 10.1582C20.3554 9.8593 20.1875 9.45393 20.1875 9.03124C20.1875 8.60855 20.3554 8.20317 20.6543 7.90429C20.9532 7.6054 21.3586 7.43749 21.7812 7.43749C22.2039 7.43749 22.6093 7.6054 22.9082 7.90429C23.2071 8.20317 23.375 8.60855 23.375 9.03124C23.375 9.45393 23.2071 9.8593 22.9082 10.1582C22.6093 10.4571 22.2039 10.625 21.7812 10.625Z"/>
    </mask>
    <path d="M21.0163 23.5705C20.6975 23.7447 20.4457 24.0252 20.3065 24.3642L18.0625 22.5675V19.2737L21.25 18.2112V15.7887L18.0625 14.7262V11.4325L20.9185 9.14811L21.5815 9.97686L19.125 11.9436V13.9623L22.3125 15.0248V18.9773L19.125 20.0398V22.0586L21.0163 23.5705ZM15.9375 30.8136V3.18749L9.775 5.44424C9.63369 5.51436 9.42119 5.79593 9.35 5.93724L8.35869 8.82724C8.21631 9.39036 7.72119 9.95349 7.225 10.2361L3.47119 12.3505C3.32881 12.4206 3.1875 12.6321 3.1875 12.7734V15.9375H4.34031C4.46563 15.583 4.71222 15.2843 5.03651 15.0941C5.36079 14.9038 5.74188 14.8344 6.11242 14.8979C6.48297 14.9615 6.81911 15.154 7.06143 15.4415C7.30376 15.7289 7.43666 16.0928 7.43666 16.4687C7.43666 16.8447 7.30376 17.2086 7.06143 17.496C6.81911 17.7834 6.48297 17.976 6.11242 18.0395C5.74188 18.1031 5.36079 18.0336 5.03651 17.8434C4.71222 17.6532 4.46563 17.3544 4.34031 17H3.1875V20.5243C3.1875 20.6646 3.32881 20.9472 3.47119 21.0874L7.29619 23.7649C7.72119 24.0476 8.21631 24.6819 8.35869 25.1749L9.35 28.0649C9.35 28.2763 9.63369 28.4877 9.775 28.5579L15.9375 30.8125V30.8136ZM17.3655 2.1898L23.528 4.44655L23.6342 4.49224C24.0061 4.67711 24.3568 5.10105 24.5363 5.45911L24.5926 5.59299L25.5839 8.48299C25.6689 8.80705 25.9526 9.15024 26.2374 9.31174L29.988 11.424C30.43 11.6429 30.8125 12.2134 30.8125 12.7734V20.5254C30.8125 20.9801 30.5426 21.5167 30.2175 21.8418L30.0762 21.9587L26.2512 24.6372C25.9962 24.8072 25.6668 25.2386 25.5999 25.4702L24.633 28.2933C24.5427 28.8734 24.1145 29.2729 23.6342 29.5099L23.528 29.5566L17.3655 31.8112C17.051 31.926 15.8865 31.926 15.572 31.8112L9.4095 29.5566L9.30325 29.5099C8.823 29.2729 8.39481 28.8724 8.3045 28.2933L7.33763 25.4702C7.27069 25.2386 6.94131 24.8062 6.68631 24.6372L2.86131 21.9597L2.72106 21.8418C2.39488 21.5156 2.125 20.9801 2.125 20.5243V12.7734C2.125 12.2134 2.5075 11.6429 2.9495 11.424L6.70013 9.31174C6.98488 9.15024 7.2675 8.80705 7.35356 8.48299L8.34488 5.59299L8.40119 5.45911C8.58181 5.10105 8.93031 4.67711 9.30325 4.49224L9.4095 4.44655L15.572 2.19086C15.8865 2.07505 17.051 2.07505 17.3655 2.19086V2.1898ZM17 3.18855V30.8136L23.1625 28.5589C23.3038 28.4888 23.5875 28.2774 23.5875 28.0659L24.5788 25.1759C24.7212 24.6829 25.2163 24.0486 25.6413 23.7671L29.4663 21.0896C29.6087 20.9482 29.75 20.6656 29.75 20.5254V17H28.5972C28.4719 17.3544 28.2253 17.6532 27.901 17.8434C27.5767 18.0336 27.1956 18.1031 26.8251 18.0395C26.4545 17.976 26.1184 17.7834 25.8761 17.496C25.6337 17.2086 25.5008 16.8447 25.5008 16.4687C25.5008 16.0928 25.6337 15.7289 25.8761 15.4415C26.1184 15.154 26.4545 14.9615 26.8251 14.8979C27.1956 14.8344 27.5767 14.9038 27.901 15.0941C28.2253 15.2843 28.4719 15.583 28.5972 15.9375H29.75V12.7712C29.75 12.631 29.6087 12.4206 29.4663 12.3494L25.7125 10.2361C25.2163 9.95455 24.7212 9.39036 24.5788 8.82724L23.5875 5.93724C23.5163 5.79593 23.3038 5.51436 23.1625 5.44424L17 3.18749V3.18855ZM12.631 9.63793L14.875 11.4325V14.7262L11.6875 15.7887V18.2112L14.875 19.2737V22.5675L12.631 24.3631C12.7739 24.7108 12.7893 25.0978 12.6745 25.4557C12.5597 25.8136 12.3221 26.1195 12.0037 26.3192C11.6852 26.5189 11.3064 26.5996 10.9342 26.5471C10.562 26.4946 10.2203 26.3122 9.9696 26.0322C9.71884 25.7521 9.57514 25.3925 9.56387 25.0168C9.55261 24.641 9.67451 24.2734 9.90803 23.9789C10.1416 23.6843 10.4717 23.4818 10.8401 23.4071C11.2085 23.3323 11.5914 23.3902 11.9213 23.5705L13.8125 22.0575V20.0387L10.625 18.9762V15.0237L13.8125 13.9612V11.9425L11.9213 10.4295C12.2389 10.2552 12.4918 9.97474 12.631 9.63686V9.63793ZM27.0938 17C26.9529 17 26.8177 16.944 26.7181 16.8444C26.6185 16.7448 26.5625 16.6096 26.5625 16.4687C26.5625 16.3278 26.6185 16.1927 26.7181 16.0931C26.8177 15.9935 26.9529 15.9375 27.0938 15.9375C27.2346 15.9375 27.3698 15.9935 27.4694 16.0931C27.569 16.1927 27.625 16.3278 27.625 16.4687C27.625 16.6096 27.569 16.7448 27.4694 16.8444C27.3698 16.944 27.2346 17 27.0938 17ZM21.7812 10.625C21.3586 10.625 20.9532 10.4571 20.6543 10.1582C20.3554 9.8593 20.1875 9.45393 20.1875 9.03124C20.1875 8.60855 20.3554 8.20317 20.6543 7.90429C20.9532 7.6054 21.3586 7.43749 21.7812 7.43749C22.2039 7.43749 22.6093 7.6054 22.9082 7.90429C23.2071 8.20317 23.375 8.60855 23.375 9.03124C23.375 9.45393 23.2071 9.8593 22.9082 10.1582C22.6093 10.4571 22.2039 10.625 21.7812 10.625Z" fill="white"/>
    <path d="M21.0163 23.5705C20.6975 23.7447 20.4457 24.0252 20.3065 24.3642L18.0625 22.5675V19.2737L21.25 18.2112V15.7887L18.0625 14.7262V11.4325L20.9185 9.14811L21.5815 9.97686L19.125 11.9436V13.9623L22.3125 15.0248V18.9773L19.125 20.0398V22.0586L21.0163 23.5705ZM15.9375 30.8136V3.18749L9.775 5.44424C9.63369 5.51436 9.42119 5.79593 9.35 5.93724L8.35869 8.82724C8.21631 9.39036 7.72119 9.95349 7.225 10.2361L3.47119 12.3505C3.32881 12.4206 3.1875 12.6321 3.1875 12.7734V15.9375H4.34031C4.46563 15.583 4.71222 15.2843 5.03651 15.0941C5.36079 14.9038 5.74188 14.8344 6.11242 14.8979C6.48297 14.9615 6.81911 15.154 7.06143 15.4415C7.30376 15.7289 7.43666 16.0928 7.43666 16.4687C7.43666 16.8447 7.30376 17.2086 7.06143 17.496C6.81911 17.7834 6.48297 17.976 6.11242 18.0395C5.74188 18.1031 5.36079 18.0336 5.03651 17.8434C4.71222 17.6532 4.46563 17.3544 4.34031 17H3.1875V20.5243C3.1875 20.6646 3.32881 20.9472 3.47119 21.0874L7.29619 23.7649C7.72119 24.0476 8.21631 24.6819 8.35869 25.1749L9.35 28.0649C9.35 28.2763 9.63369 28.4877 9.775 28.5579L15.9375 30.8125V30.8136ZM17.3655 2.1898L23.528 4.44655L23.6342 4.49224C24.0061 4.67711 24.3568 5.10105 24.5363 5.45911L24.5926 5.59299L25.5839 8.48299C25.6689 8.80705 25.9526 9.15024 26.2374 9.31174L29.988 11.424C30.43 11.6429 30.8125 12.2134 30.8125 12.7734V20.5254C30.8125 20.9801 30.5426 21.5167 30.2175 21.8418L30.0762 21.9587L26.2512 24.6372C25.9962 24.8072 25.6668 25.2386 25.5999 25.4702L24.633 28.2933C24.5427 28.8734 24.1145 29.2729 23.6342 29.5099L23.528 29.5566L17.3655 31.8112C17.051 31.926 15.8865 31.926 15.572 31.8112L9.4095 29.5566L9.30325 29.5099C8.823 29.2729 8.39481 28.8724 8.3045 28.2933L7.33763 25.4702C7.27069 25.2386 6.94131 24.8062 6.68631 24.6372L2.86131 21.9597L2.72106 21.8418C2.39488 21.5156 2.125 20.9801 2.125 20.5243V12.7734C2.125 12.2134 2.5075 11.6429 2.9495 11.424L6.70013 9.31174C6.98488 9.15024 7.2675 8.80705 7.35356 8.48299L8.34488 5.59299L8.40119 5.45911C8.58181 5.10105 8.93031 4.67711 9.30325 4.49224L9.4095 4.44655L15.572 2.19086C15.8865 2.07505 17.051 2.07505 17.3655 2.19086V2.1898ZM17 3.18855V30.8136L23.1625 28.5589C23.3038 28.4888 23.5875 28.2774 23.5875 28.0659L24.5788 25.1759C24.7212 24.6829 25.2163 24.0486 25.6413 23.7671L29.4663 21.0896C29.6087 20.9482 29.75 20.6656 29.75 20.5254V17H28.5972C28.4719 17.3544 28.2253 17.6532 27.901 17.8434C27.5767 18.0336 27.1956 18.1031 26.8251 18.0395C26.4545 17.976 26.1184 17.7834 25.8761 17.496C25.6337 17.2086 25.5008 16.8447 25.5008 16.4687C25.5008 16.0928 25.6337 15.7289 25.8761 15.4415C26.1184 15.154 26.4545 14.9615 26.8251 14.8979C27.1956 14.8344 27.5767 14.9038 27.901 15.0941C28.2253 15.2843 28.4719 15.583 28.5972 15.9375H29.75V12.7712C29.75 12.631 29.6087 12.4206 29.4663 12.3494L25.7125 10.2361C25.2163 9.95455 24.7212 9.39036 24.5788 8.82724L23.5875 5.93724C23.5163 5.79593 23.3038 5.51436 23.1625 5.44424L17 3.18749V3.18855ZM12.631 9.63793L14.875 11.4325V14.7262L11.6875 15.7887V18.2112L14.875 19.2737V22.5675L12.631 24.3631C12.7739 24.7108 12.7893 25.0978 12.6745 25.4557C12.5597 25.8136 12.3221 26.1195 12.0037 26.3192C11.6852 26.5189 11.3064 26.5996 10.9342 26.5471C10.562 26.4946 10.2203 26.3122 9.9696 26.0322C9.71884 25.7521 9.57514 25.3925 9.56387 25.0168C9.55261 24.641 9.67451 24.2734 9.90803 23.9789C10.1416 23.6843 10.4717 23.4818 10.8401 23.4071C11.2085 23.3323 11.5914 23.3902 11.9213 23.5705L13.8125 22.0575V20.0387L10.625 18.9762V15.0237L13.8125 13.9612V11.9425L11.9213 10.4295C12.2389 10.2552 12.4918 9.97474 12.631 9.63686V9.63793ZM27.0938 17C26.9529 17 26.8177 16.944 26.7181 16.8444C26.6185 16.7448 26.5625 16.6096 26.5625 16.4687C26.5625 16.3278 26.6185 16.1927 26.7181 16.0931C26.8177 15.9935 26.9529 15.9375 27.0938 15.9375C27.2346 15.9375 27.3698 15.9935 27.4694 16.0931C27.569 16.1927 27.625 16.3278 27.625 16.4687C27.625 16.6096 27.569 16.7448 27.4694 16.8444C27.3698 16.944 27.2346 17 27.0938 17ZM21.7812 10.625C21.3586 10.625 20.9532 10.4571 20.6543 10.1582C20.3554 9.8593 20.1875 9.45393 20.1875 9.03124C20.1875 8.60855 20.3554 8.20317 20.6543 7.90429C20.9532 7.6054 21.3586 7.43749 21.7812 7.43749C22.2039 7.43749 22.6093 7.6054 22.9082 7.90429C23.2071 8.20317 23.375 8.60855 23.375 9.03124C23.375 9.45393 23.2071 9.8593 22.9082 10.1582C22.6093 10.4571 22.2039 10.625 21.7812 10.625Z" stroke="white" stroke-width="0.24" mask="url(#path-1-outside-1_53_8871)"/>
    <path d="M11.1562 10.625C10.7336 10.625 10.3282 10.4571 10.0293 10.1582C9.73041 9.85932 9.5625 9.45394 9.5625 9.03125C9.5625 8.60856 9.73041 8.20318 10.0293 7.9043C10.3282 7.60541 10.7336 7.4375 11.1562 7.4375C11.5789 7.4375 11.9843 7.60541 12.2832 7.9043C12.5821 8.20318 12.75 8.60856 12.75 9.03125C12.75 9.45394 12.5821 9.85932 12.2832 10.1582C11.9843 10.4571 11.5789 10.625 11.1562 10.625ZM21.7812 26.5625C21.572 26.5625 21.3647 26.5213 21.1713 26.4412C20.978 26.3611 20.8023 26.2437 20.6543 26.0957C20.5063 25.9477 20.3889 25.772 20.3088 25.5787C20.2287 25.3853 20.1875 25.178 20.1875 24.9688C20.1875 24.7595 20.2287 24.5522 20.3088 24.3588C20.3889 24.1655 20.5063 23.9898 20.6543 23.8418C20.8023 23.6938 20.978 23.5764 21.1713 23.4963C21.3647 23.4162 21.572 23.375 21.7812 23.375C22.2039 23.375 22.6093 23.5429 22.9082 23.8418C23.2071 24.1407 23.375 24.5461 23.375 24.9688C23.375 25.3914 23.2071 25.7968 22.9082 26.0957C22.6093 26.3946 22.2039 26.5625 21.7812 26.5625Z" fill="white" fill-opacity="0.1"/>
    <circle cx="26" cy="26" r="8" fill="#1C1C1C"/>
    <path d="M26.1305 30.9429C23.6951 30.9429 21.6494 30.3584 21.1299 29.5791C21.0649 29.709 21 29.8389 21 29.9688C21 30.9429 23.3055 31.7222 26.1305 31.7222C28.9555 31.7222 31.261 30.9429 31.261 29.9688C31.261 29.8389 31.2285 29.709 31.1311 29.5791C30.6116 30.3584 28.5659 30.9429 26.1305 30.9429ZM26.1305 24.2862C28.9555 24.2862 31.261 23.3121 31.261 22.1431C31.261 20.9741 28.9555 20 26.1305 20C23.3055 20 21 20.9741 21 22.1431C21 23.3121 23.3055 24.2862 26.1305 24.2862ZM23.8575 25.9748V25.2279C22.4937 25.0006 21.4546 24.5785 21.1299 24.0589C21.0649 24.1888 21 24.3187 21 24.4486C21 25.098 22.169 25.6825 23.8575 25.9748ZM28.4035 25.2279V25.9748C30.092 25.6825 31.261 25.098 31.261 24.4161C31.261 24.2862 31.2285 24.1564 31.1311 24.0265C30.7739 24.546 29.7673 25.0006 28.4035 25.2279ZM28.4035 27.0788V27.8256C30.092 27.5334 31.261 26.9489 31.261 26.267C31.261 26.1371 31.2285 26.0072 31.1311 25.8773C30.7739 26.4294 29.7673 26.8515 28.4035 27.0788ZM23.8575 27.8256V27.0788C22.4937 26.8515 21.4546 26.4294 21.1299 25.9098C21.0649 26.0397 21 26.1696 21 26.2995C21 26.9489 22.169 27.5659 23.8575 27.8256ZM23.8575 29.6765V28.9297C22.4937 28.7024 21.4546 28.2802 21.1299 27.7607C21.0649 27.8906 21 28.0205 21 28.1504C21 28.7998 22.169 29.4167 23.8575 29.6765ZM28.4035 28.9297V29.6765C30.092 29.3843 31.261 28.7998 31.261 28.1179C31.261 27.988 31.2285 27.8581 31.1311 27.7282C30.7739 28.2802 29.7673 28.7024 28.4035 28.9297ZM25.8707 30.261C25.9357 30.2935 26.0006 30.3259 26.098 30.3259C26.163 30.3259 26.2604 30.2935 26.3253 30.261C26.3903 30.2285 26.4227 30.1636 26.4227 30.0662V29.8064C26.8773 29.7739 27.2021 29.644 27.4618 29.4167C27.7216 29.1894 27.8515 28.8972 27.8515 28.54C27.8515 28.3452 27.819 28.1828 27.7216 28.0205C27.6567 27.8906 27.5268 27.7607 27.3969 27.6633C27.267 27.5659 27.1371 27.4685 26.9748 27.4035L26.4877 27.2087L26.5202 26.0072L26.715 26.1046C26.7799 26.1371 26.8124 26.1696 26.8449 26.2021L27.0397 26.2995C27.1046 26.3319 27.1696 26.3319 27.267 26.3319C27.3969 26.3319 27.4943 26.2995 27.5592 26.2345C27.6242 26.1696 27.6567 26.0722 27.6567 25.9748C27.6567 25.9098 27.6242 25.8773 27.5917 25.7799C27.5592 25.715 27.4618 25.65 27.3969 25.5526C27.2995 25.4877 27.2021 25.4227 27.0397 25.3578C26.9098 25.2929 26.7475 25.2604 26.5526 25.2279V24.8707C26.5526 24.7733 26.5202 24.7084 26.4552 24.6759C26.3903 24.6434 26.3253 24.611 26.2279 24.611C26.163 24.611 26.0656 24.6434 26.0006 24.6759C25.9357 24.7084 25.9032 24.7733 25.9032 24.8707V25.1954C25.4486 25.2279 25.0589 25.3578 24.8316 25.5851C24.5719 25.8124 24.442 26.1046 24.442 26.4943C24.442 26.6891 24.4745 26.8515 24.5719 26.9814C24.6693 27.1113 24.7667 27.2412 24.8966 27.3386C25.0265 27.436 25.1888 27.5334 25.3512 27.5983L25.8383 27.7932L25.8058 29.0271C25.611 28.9621 25.4486 28.8972 25.3512 28.7998C25.2862 28.7673 25.2213 28.7024 25.1564 28.6699C25.0914 28.6374 24.994 28.605 24.9291 28.605C24.6693 28.605 24.5069 28.7024 24.5069 28.9297C24.5069 29.0271 24.5394 29.1245 24.6368 29.2219C24.7342 29.3193 24.8316 29.3843 24.9615 29.4492C25.0914 29.5142 25.2213 29.5791 25.3837 29.6116C25.546 29.644 25.6759 29.6765 25.8058 29.709V30.0012C25.7733 30.1311 25.8058 30.1961 25.8707 30.261ZM26.4552 28.0529C26.5851 28.1179 26.715 28.1828 26.7799 28.2802C26.8773 28.3777 26.9098 28.4751 26.9098 28.5725C26.9098 28.7348 26.8773 28.8323 26.7799 28.8972C26.6825 28.9621 26.5851 29.0271 26.4227 29.0596L26.4552 28.0529ZM25.5135 26.7865C25.4161 26.7216 25.3837 26.5917 25.3837 26.4618C25.3837 26.2995 25.4161 26.2021 25.5135 26.1046C25.611 26.0072 25.7408 25.9748 25.9032 25.9423L25.8707 26.9814C25.7084 26.9489 25.5785 26.884 25.5135 26.7865Z" fill="white"/>
</svg>    