<svg width="33" height="33" viewBox="0 0 33 33" fill="none" xmlns="http://www.w3.org/2000/svg">
    <path d="M21.1014 3.44851C20.9715 3.04502 20.7166 2.69329 20.3737 2.44415C20.0308 2.19501 19.6175 2.06135 19.1936 2.06251C18.1397 2.06251 17.226 2.91226 17.226 3.96826C17.226 5.02426 18.0757 5.87401 19.1936 5.87401C19.7154 5.87401 20.2517 5.68632 20.5817 5.27588C25.5007 6.97745 28.9822 11.5129 28.9822 16.8238C28.9822 18.1294 28.7925 19.3916 28.3841 20.5714L30.0857 21.549C30.6368 20.0333 30.9248 18.4345 30.9375 16.8218C30.954 10.6013 26.8083 5.29238 21.1014 3.44851ZM26.6825 23.5352C25.6265 23.5352 24.7108 24.3808 24.7108 25.441C24.7108 25.6431 24.7727 25.771 24.7727 25.9607C22.5011 27.9506 19.5838 29.0472 16.5639 29.0462C14.8404 29.0393 13.1364 28.6809 11.5562 27.9929C9.97598 27.3049 8.55269 26.3018 7.37341 25.045L5.60997 26.0226C6.97154 27.5736 8.6497 28.8149 10.5314 29.6627C12.4131 30.5105 14.4547 30.9452 16.5185 30.9375C20.1898 30.9375 23.6115 29.5515 26.1009 27.2663C26.2267 27.3281 26.369 27.3281 26.5567 27.3281C27.6127 27.3281 28.5285 26.4804 28.5285 25.4244C28.5285 24.3685 27.7385 23.5331 26.6846 23.5331H26.6825V23.5352ZM4.49003 19.1998C4.36422 18.4119 4.22191 17.688 4.22191 16.8362C4.22191 10.9911 8.42941 6.14007 14.0105 4.96032V2.99063C7.31153 4.17451 2.25222 9.94126 2.25222 16.8383C2.25841 17.8076 2.36772 18.777 2.58222 19.7216C2.413 19.8941 2.27987 20.0986 2.19063 20.3231C2.10139 20.5476 2.05782 20.7877 2.06247 21.0293C2.06247 22.0832 2.91428 22.935 4.03422 22.935C5.09022 22.935 6.00185 22.0832 6.00185 21.0293C5.99379 20.5985 5.83988 20.1833 5.56528 19.8514C5.29067 19.5195 4.91161 19.2905 4.49003 19.2019V19.1998Z" fill="white"/>
    <path d="M22.871 16.3164C22.9865 16.3164 23.0773 16.4113 23.0773 16.5268V18.9502C23.0773 20.6497 21.7057 22.0275 20.0145 22.0275H13.6929V23.6692C13.6935 23.7082 13.683 23.7466 13.6627 23.7799C13.6424 23.8132 13.613 23.8401 13.578 23.8573C13.543 23.8746 13.5039 23.8816 13.4651 23.8775C13.4262 23.8734 13.3894 23.8584 13.3588 23.8342L10.0052 21.1963C9.98076 21.1774 9.961 21.1532 9.94741 21.1255C9.93382 21.0977 9.92675 21.0673 9.92675 21.0364C9.92675 21.0056 9.93382 20.9751 9.94741 20.9474C9.961 20.9197 9.98076 20.8955 10.0052 20.8766L13.3588 18.2407C13.3894 18.2165 13.4262 18.2015 13.4651 18.1974C13.5039 18.1933 13.543 18.2003 13.578 18.2176C13.613 18.2349 13.6424 18.2617 13.6627 18.295C13.683 18.3283 13.6935 18.3667 13.6929 18.4057V20.0454H20.0104C20.3003 20.0454 20.5783 19.9302 20.7833 19.7252C20.9883 19.5202 21.1035 19.2422 21.1035 18.9523V16.5247C21.1035 16.4092 21.1963 16.3143 21.3097 16.3143L22.871 16.3164ZM19.4308 9.51015C19.4655 9.49265 19.5044 9.4853 19.5431 9.48895C19.5818 9.4926 19.6186 9.5071 19.6494 9.53078L23.003 12.1646C23.0283 12.184 23.0487 12.209 23.0628 12.2376C23.0769 12.2663 23.0842 12.2977 23.0842 12.3296C23.0842 12.3615 23.0769 12.3929 23.0628 12.4215C23.0487 12.4501 23.0283 12.4751 23.003 12.4946L19.6494 15.1284C19.6189 15.1525 19.5823 15.1675 19.5437 15.1716C19.5051 15.1758 19.466 15.169 19.4311 15.152C19.3962 15.1349 19.3668 15.1084 19.3463 15.0754C19.3258 15.0424 19.3151 15.0043 19.3153 14.9655V13.3237H12.9937C12.7038 13.3237 12.4258 13.4389 12.2208 13.6439C12.0158 13.8489 11.9006 14.1269 11.9006 14.4168V16.8423C11.9006 16.8972 11.8789 16.9499 11.8403 16.9889C11.8017 17.0279 11.7492 17.0501 11.6944 17.0507H10.133C10.1051 17.051 10.0773 17.0456 10.0515 17.0348C10.0257 17.0241 10.0023 17.0082 9.98285 16.9881C9.96337 16.968 9.94817 16.9442 9.93817 16.9181C9.92818 16.892 9.92361 16.8641 9.92473 16.8362V14.4107C9.92473 12.7112 11.2984 11.3355 12.9896 11.3355H19.3153V9.69578C19.3152 9.65712 19.326 9.61922 19.3464 9.5864C19.3668 9.55358 19.3961 9.52716 19.4308 9.51015Z" fill="white"/>
</svg>    