<svg width="40" height="40" viewBox="0 0 40 40" fill="none" xmlns="http://www.w3.org/2000/svg">
    <path d="M24.2609 20.9691L29.3039 21.0516C29.6801 21.5609 30.2844 21.8914 30.966 21.8914C32.1066 21.8914 33.0309 20.9668 33.0309 19.8266C33.0309 18.6859 32.1062 17.7617 30.966 17.7617C30.0836 17.7617 29.3309 18.3152 29.0352 19.0941L24.4 19.0184C24.4285 17.7215 24.3254 16.4527 24.0918 15.2227C25.2449 14.809 26.4043 14.2348 27.5609 13.5039C28.3371 14.4617 28.9363 15.568 29.3082 16.7734H31.3934C30.8816 14.7262 29.8238 12.8484 28.293 11.3176C26.0668 9.09141 23.1066 7.86523 19.9582 7.86523C16.8098 7.86523 13.8496 9.09141 11.6234 11.3176C10.0926 12.8484 9.03477 14.7262 8.52305 16.7734H10.6082C10.9902 15.5352 11.6125 14.4012 12.4195 13.4254C13.0922 13.9703 14.1535 14.6961 15.5578 15.241C15.3039 16.418 15.173 17.6297 15.166 18.8676L10.9176 18.798C10.5609 18.1789 9.89297 17.7617 9.12734 17.7617C7.98672 17.7617 7.0625 18.6863 7.0625 19.8266C7.0625 20.9672 7.98711 21.8914 9.12734 21.8914C9.93477 21.8914 10.6336 21.4277 10.973 20.7523L15.2559 20.8223C15.2781 21.0535 15.3043 21.2855 15.3352 21.518C15.4742 22.5742 15.6996 23.6457 16.0098 24.7281C14.6672 25.1859 13.6047 25.8246 12.8566 26.3723C11.984 25.4504 11.2883 24.3594 10.8246 23.1539H8.69844C9.25742 24.959 10.25 26.6129 11.6238 27.9871C13.85 30.2133 16.8102 31.4395 19.9586 31.4395C23.107 31.4395 26.0672 30.2133 28.2934 27.9871C29.6676 26.6129 30.6602 24.959 31.2187 23.1539H29.0926C28.6344 24.3457 27.9488 25.4254 27.0902 26.3406C25.8848 25.6238 24.6781 25.0777 23.4793 24.7059C23.7957 23.6359 24.0316 22.5773 24.1855 21.5336C24.2133 21.3449 24.2383 21.1566 24.2609 20.9691ZM16.1 13.2977C15.1355 12.8996 14.3781 12.4047 13.8613 12.0074C14.9367 11.148 16.1961 10.5098 17.5707 10.1637C17.0676 10.9883 16.5359 12.0359 16.1 13.2977ZM19.9355 10.2426C20.45 10.9832 21.1504 12.1859 21.6742 13.8258C20.432 14.0684 19.2145 14.0816 18.0258 13.8645C18.6102 12.2105 19.3801 10.9891 19.9355 10.2426ZM22.234 10.1371C23.673 10.4813 24.9898 11.1441 26.1047 12.0469C25.2617 12.5527 24.427 12.9613 23.6016 13.2727C23.202 12.007 22.7047 10.959 22.234 10.1371ZM17.4871 15.8012C18.2168 15.9453 18.9586 16.0176 19.7094 16.0176C20.3223 16.0176 20.941 15.9695 21.5633 15.873C21.7598 15.8426 21.9562 15.807 22.1535 15.7672C22.3383 16.8098 22.4164 17.8844 22.3895 18.9848L17.1609 18.8996C17.168 17.8461 17.277 16.8129 17.4871 15.8012ZM22.2352 20.9359C22.0914 22.0223 21.8504 23.1297 21.5137 24.2523C20.3051 24.0703 19.1117 24.0699 17.9473 24.2508C17.6113 23.0988 17.3828 21.9664 17.2621 20.8551L22.2352 20.9359ZM20.8484 26.1793C20.5242 27.009 20.1492 27.8449 19.7242 28.6855C19.2977 27.8418 18.9242 27.007 18.6039 26.1812C19.3418 26.093 20.0902 26.0926 20.8484 26.1793ZM17.734 29.1793C16.534 28.8992 15.418 28.3973 14.432 27.7195C15.0051 27.3418 15.7473 26.9383 16.6379 26.632C16.9531 27.4762 17.3187 28.3258 17.734 29.1793ZM25.4758 27.7258C24.352 28.4965 23.0598 29.0391 21.6664 29.2855C22.1109 28.3852 22.5023 27.4895 22.8398 26.6C23.7078 26.866 24.5871 27.2414 25.4758 27.7258Z" fill="white"/>
    <path d="M31.427 8.57856C28.8235 5.90513 25.4383 4.24614 21.7762 3.82192C21.5719 2.94536 20.7864 2.29224 19.8477 2.29224C18.7535 2.29224 17.8668 3.17896 17.8668 4.2731C17.8668 5.36724 18.7535 6.25396 19.8477 6.25396C20.6883 6.25396 21.4063 5.73013 21.6938 4.99106C29.1559 5.86997 34.8188 12.1333 34.8188 19.8055C34.8188 24.3352 32.7953 28.568 29.2676 31.418C29.016 31.6215 28.9766 31.9903 29.1801 32.2418C29.2957 32.3852 29.4653 32.4594 29.6364 32.4594C29.7656 32.4594 29.8957 32.4168 30.0043 32.3293C33.8086 29.2559 35.9907 24.6911 35.9907 19.8055C35.9903 15.5872 34.3699 11.6 31.427 8.57856ZM19.8477 33.5211C19.0731 33.5211 18.4028 33.9661 18.0774 34.6137C10.7317 33.7043 4.97854 27.3485 4.97854 19.8055C4.97854 15.6454 6.73518 11.6426 9.79846 8.82388C10.0367 8.60474 10.052 8.23403 9.83284 7.99575C9.6137 7.75747 9.24299 7.74224 9.00471 7.96138C7.38284 9.45356 6.10549 11.2258 5.20745 13.229C4.27776 15.3024 3.80627 17.5153 3.80627 19.8055C3.80627 24.0383 5.43635 28.0348 8.39612 31.0598C10.9656 33.6856 14.2883 35.3258 17.8852 35.7731C18.0172 36.7387 18.8449 37.4829 19.8473 37.4829C20.9414 37.4829 21.8281 36.5961 21.8281 35.502C21.8281 34.4079 20.9414 33.5211 19.8477 33.5211Z" fill="white"/>
</svg>    