<svg width="167" height="21" viewBox="0 0 167 21" fill="none" xmlns="http://www.w3.org/2000/svg">
    <path d="M50.504 14V12.936H51.47V6.902H50.504V5.838H55.53C56.3327 5.838 56.9487 6.006 57.378 6.342C57.8073 6.66867 58.022 7.17267 58.022 7.854C58.022 8.218 57.9473 8.53533 57.798 8.806C57.6487 9.06733 57.448 9.27733 57.196 9.436C56.944 9.58533 56.6687 9.68333 56.37 9.73L56.3 9.618C56.7853 9.63667 57.1867 9.744 57.504 9.94C57.8213 10.1267 58.0593 10.3787 58.218 10.696C58.3767 11.0133 58.456 11.368 58.456 11.76C58.456 12.4973 58.232 13.0573 57.784 13.44C57.336 13.8133 56.664 14 55.768 14H50.504ZM52.94 12.936H55.348C55.908 12.936 56.314 12.8193 56.566 12.586C56.818 12.3527 56.944 12.026 56.944 11.606C56.944 11.2047 56.818 10.8827 56.566 10.64C56.314 10.3973 55.908 10.276 55.348 10.276H52.94V12.936ZM52.94 9.184H55.208C55.628 9.184 55.9453 9.08133 56.16 8.876C56.384 8.66133 56.496 8.38133 56.496 8.036C56.496 7.644 56.3793 7.35933 56.146 7.182C55.922 6.99533 55.5487 6.902 55.026 6.902H52.94V9.184ZM59.2741 14V13.006H60.1841V6.832H59.2181V5.838H61.5001V13.006H62.3541V14H59.2741ZM66.1195 14.14C65.5128 14.14 64.9808 14.0093 64.5235 13.748C64.0755 13.4867 63.7255 13.1367 63.4735 12.698C63.2308 12.25 63.1095 11.7507 63.1095 11.2C63.1095 10.6493 63.2308 10.1547 63.4735 9.716C63.7255 9.27733 64.0755 8.932 64.5235 8.68C64.9808 8.41867 65.5128 8.288 66.1195 8.288C66.7168 8.288 67.2395 8.41867 67.6875 8.68C68.1448 8.932 68.4995 9.27733 68.7515 9.716C69.0035 10.1547 69.1295 10.6493 69.1295 11.2C69.1295 11.7507 69.0035 12.25 68.7515 12.698C68.4995 13.1367 68.1448 13.4867 67.6875 13.748C67.2395 14.0093 66.7168 14.14 66.1195 14.14ZM66.1195 13.062C66.6328 13.062 67.0481 12.8893 67.3655 12.544C67.6921 12.1987 67.8555 11.7507 67.8555 11.2C67.8555 10.6587 67.6921 10.22 67.3655 9.884C67.0481 9.53867 66.6328 9.366 66.1195 9.366C65.5875 9.366 65.1628 9.53867 64.8455 9.884C64.5281 10.22 64.3695 10.6587 64.3695 11.2C64.3695 11.7507 64.5281 12.1987 64.8455 12.544C65.1628 12.8893 65.5875 13.062 66.1195 13.062ZM73.2171 14.14C72.5731 14.14 72.0178 14.0093 71.5511 13.748C71.0938 13.4867 70.7391 13.132 70.4871 12.684C70.2445 12.236 70.1231 11.7367 70.1231 11.186C70.1231 10.654 70.2351 10.1687 70.4591 9.73C70.6831 9.29133 71.0051 8.94133 71.4251 8.68C71.8451 8.41867 72.3538 8.288 72.9511 8.288C73.2405 8.288 73.5158 8.33933 73.7771 8.442C74.0385 8.53533 74.2578 8.67533 74.4351 8.862C74.6125 9.03933 74.7105 9.24933 74.7291 9.492L74.5751 9.52V8.428H75.5131V10.444H74.6731C74.4491 9.744 73.9218 9.394 73.0911 9.394C72.5218 9.394 72.0925 9.56667 71.8031 9.912C71.5231 10.248 71.3831 10.6773 71.3831 11.2C71.3831 11.732 71.5465 12.1753 71.8731 12.53C72.2091 12.8753 72.6805 13.048 73.2871 13.048C73.6231 13.048 73.9498 12.978 74.2671 12.838C74.5845 12.698 74.8458 12.5253 75.0511 12.32L75.6391 13.23C75.3685 13.5193 75.0045 13.7433 74.5471 13.902C74.0898 14.0607 73.6465 14.14 73.2171 14.14ZM78.4806 13.006H79.2086V14H76.2546V13.006H77.1646V6.832H76.1986V5.838H78.4806V11.088L80.7346 9.408H79.8806V8.428H82.7226V9.408H81.9386L79.3486 11.298L79.7686 10.696L82.0226 13.006H83.0166V14H81.1406L78.4806 11.2V13.006ZM86.4925 14.14C85.8485 14.14 85.2932 14.0093 84.8265 13.748C84.3692 13.4867 84.0145 13.132 83.7625 12.684C83.5199 12.236 83.3985 11.7367 83.3985 11.186C83.3985 10.654 83.5105 10.1687 83.7345 9.73C83.9585 9.29133 84.2805 8.94133 84.7005 8.68C85.1205 8.41867 85.6292 8.288 86.2265 8.288C86.5159 8.288 86.7912 8.33933 87.0525 8.442C87.3139 8.53533 87.5332 8.67533 87.7105 8.862C87.8879 9.03933 87.9859 9.24933 88.0045 9.492L87.8505 9.52V8.428H88.7885V10.444H87.9485C87.7245 9.744 87.1972 9.394 86.3665 9.394C85.7972 9.394 85.3679 9.56667 85.0785 9.912C84.7985 10.248 84.6585 10.6773 84.6585 11.2C84.6585 11.732 84.8219 12.1753 85.1485 12.53C85.4845 12.8753 85.9559 13.048 86.5625 13.048C86.8985 13.048 87.2252 12.978 87.5425 12.838C87.8599 12.698 88.1212 12.5253 88.3265 12.32L88.9145 13.23C88.6439 13.5193 88.2799 13.7433 87.8225 13.902C87.3652 14.0607 86.9219 14.14 86.4925 14.14ZM89.53 14V13.006H90.44V6.832H89.474V5.838H91.756V9.268L91.49 9.31C91.8447 8.95533 92.2273 8.69867 92.638 8.54C93.0487 8.372 93.4593 8.288 93.87 8.288C94.4673 8.288 94.9293 8.442 95.256 8.75C95.592 9.058 95.76 9.54333 95.76 10.206V13.006H96.586V14H93.534V13.006H94.444V10.514C94.444 10.1313 94.3553 9.85133 94.178 9.674C94.01 9.49667 93.7347 9.408 93.352 9.408C93.072 9.408 92.7827 9.464 92.484 9.576C92.1947 9.67867 91.8913 9.86533 91.574 10.136L91.756 9.702V13.006H92.582V14H89.53ZM99.4445 14.14C98.7725 14.14 98.2592 13.986 97.9045 13.678C97.5498 13.37 97.3725 12.964 97.3725 12.46C97.3725 11.928 97.5638 11.5173 97.9465 11.228C98.3385 10.9293 98.9078 10.78 99.6545 10.78C99.9065 10.78 100.187 10.8033 100.495 10.85C100.812 10.8967 101.106 10.9573 101.377 11.032L101.153 11.186V10.514C101.153 10.1593 101.036 9.88867 100.803 9.702C100.569 9.506 100.219 9.408 99.7525 9.408C99.4352 9.408 99.1225 9.45 98.8145 9.534C98.5065 9.618 98.2125 9.73933 97.9325 9.898L97.6105 8.862C97.9652 8.666 98.3478 8.52133 98.7585 8.428C99.1692 8.33467 99.5425 8.288 99.8785 8.288C100.719 8.288 101.358 8.47933 101.797 8.862C102.235 9.23533 102.455 9.79067 102.455 10.528V13.006H103.281V14H101.251V13.104L101.433 13.258C101.19 13.538 100.887 13.7573 100.523 13.916C100.159 14.0653 99.7992 14.14 99.4445 14.14ZM99.7385 13.132C100.019 13.132 100.303 13.076 100.593 12.964C100.891 12.852 101.12 12.7073 101.279 12.53L101.153 12.922V11.564L101.377 11.928C101.115 11.8533 100.859 11.802 100.607 11.774C100.355 11.7367 100.112 11.718 99.8785 11.718C99.4865 11.718 99.1832 11.7787 98.9685 11.9C98.7538 12.0213 98.6465 12.2033 98.6465 12.446C98.6465 12.67 98.7398 12.8427 98.9265 12.964C99.1132 13.076 99.3838 13.132 99.7385 13.132ZM103.792 14V13.006H104.688V9.408H103.722V8.428H106.004V13.006H106.83V14H103.792ZM105.346 7.49C105.075 7.49 104.865 7.41067 104.716 7.252C104.567 7.09333 104.492 6.89733 104.492 6.664C104.492 6.412 104.567 6.20667 104.716 6.048C104.865 5.88 105.075 5.796 105.346 5.796C105.607 5.796 105.813 5.88 105.962 6.048C106.111 6.20667 106.186 6.412 106.186 6.664C106.186 6.89733 106.111 7.09333 105.962 7.252C105.813 7.41067 105.607 7.49 105.346 7.49ZM107.47 14V13.006H108.366V9.408H107.4V8.428H109.598V9.268L109.416 9.31C109.77 8.95533 110.153 8.69867 110.564 8.54C110.984 8.372 111.394 8.288 111.796 8.288C112.393 8.288 112.855 8.442 113.182 8.75C113.518 9.058 113.686 9.54333 113.686 10.206V13.006H114.512V14H111.474V13.006H112.37V10.514C112.37 10.1313 112.281 9.85133 112.104 9.674C111.936 9.49667 111.66 9.408 111.278 9.408C110.998 9.408 110.713 9.464 110.424 9.576C110.134 9.67867 109.831 9.86533 109.514 10.136L109.682 9.702V13.006H110.522V14H107.47ZM119.328 14V12.936H120.294V6.902H119.328V5.838H122.73V6.902H121.764V12.936H124.83V10.822H125.922V14H119.328ZM128.921 14.14C128.249 14.14 127.736 13.986 127.381 13.678C127.026 13.37 126.849 12.964 126.849 12.46C126.849 11.928 127.04 11.5173 127.423 11.228C127.815 10.9293 128.384 10.78 129.131 10.78C129.383 10.78 129.663 10.8033 129.971 10.85C130.288 10.8967 130.582 10.9573 130.853 11.032L130.629 11.186V10.514C130.629 10.1593 130.512 9.88867 130.279 9.702C130.046 9.506 129.696 9.408 129.229 9.408C128.912 9.408 128.599 9.45 128.291 9.534C127.983 9.618 127.689 9.73933 127.409 9.898L127.087 8.862C127.442 8.666 127.824 8.52133 128.235 8.428C128.646 8.33467 129.019 8.288 129.355 8.288C130.195 8.288 130.834 8.47933 131.273 8.862C131.712 9.23533 131.931 9.79067 131.931 10.528V13.006H132.757V14H130.727V13.104L130.909 13.258C130.666 13.538 130.363 13.7573 129.999 13.916C129.635 14.0653 129.276 14.14 128.921 14.14ZM129.215 13.132C129.495 13.132 129.78 13.076 130.069 12.964C130.368 12.852 130.596 12.7073 130.755 12.53L130.629 12.922V11.564L130.853 11.928C130.592 11.8533 130.335 11.802 130.083 11.774C129.831 11.7367 129.588 11.718 129.355 11.718C128.963 11.718 128.66 11.7787 128.445 11.9C128.23 12.0213 128.123 12.2033 128.123 12.446C128.123 12.67 128.216 12.8427 128.403 12.964C128.59 13.076 128.86 13.132 129.215 13.132ZM134.448 16.394H133.496V15.246H134.336C134.607 15.246 134.821 15.19 134.98 15.078C135.148 14.9753 135.288 14.8027 135.4 14.56L135.876 13.608L136.254 14H135.414L133.608 9.408H132.88V8.428H135.848V9.408H135.008L136.324 13.034L136.142 13.118L137.892 9.408H137.052V8.428H139.908V9.408H139.18L136.436 15.106C136.221 15.5633 135.96 15.89 135.652 16.086C135.353 16.2913 134.952 16.394 134.448 16.394ZM143.536 14.14C142.817 14.14 142.211 14.0093 141.716 13.748C141.231 13.4867 140.867 13.1367 140.624 12.698C140.381 12.25 140.26 11.7507 140.26 11.2C140.26 10.6587 140.377 10.1687 140.61 9.73C140.853 9.29133 141.198 8.94133 141.646 8.68C142.094 8.41867 142.617 8.288 143.214 8.288C143.83 8.288 144.357 8.41867 144.796 8.68C145.235 8.94133 145.571 9.29133 145.804 9.73C146.037 10.1687 146.154 10.6633 146.154 11.214V11.746H140.988V10.724H144.908C144.908 10.4907 144.838 10.2667 144.698 10.052C144.567 9.828 144.376 9.64133 144.124 9.492C143.881 9.34267 143.578 9.268 143.214 9.268C142.85 9.268 142.542 9.34733 142.29 9.506C142.038 9.65533 141.842 9.85133 141.702 10.094C141.571 10.3367 141.506 10.5887 141.506 10.85V11.2C141.506 11.7693 141.679 12.222 142.024 12.558C142.369 12.8847 142.887 13.048 143.578 13.048C143.97 13.048 144.339 12.9827 144.684 12.852C145.039 12.7213 145.333 12.5533 145.566 12.348L146.112 13.272C145.813 13.5427 145.435 13.7573 144.978 13.916C144.53 14.0653 144.049 14.14 143.536 14.14ZM146.954 14V13.006H147.85V9.408H146.884V8.428H149.082V9.982L148.942 9.856C149.166 9.33333 149.427 8.94133 149.726 8.68C150.034 8.41867 150.37 8.288 150.734 8.288C151.051 8.288 151.35 8.372 151.63 8.54L151.196 9.842C151.065 9.73 150.935 9.65067 150.804 9.604C150.673 9.548 150.547 9.52 150.426 9.52C150.155 9.52 149.908 9.61333 149.684 9.8C149.469 9.97733 149.297 10.2247 149.166 10.542V13.006H150.202V14H146.954Z" fill="#A29171"/>
    <path d="M0 11H48" stroke="#A29171" stroke-dasharray="2 2"/>
</svg>