<svg width="177" height="16" viewBox="0 0 177 16" fill="none" xmlns="http://www.w3.org/2000/svg">
    <path d="M60.192 11L58.036 3.902H57.14V2.838H60.514V3.902H59.548L61.2 9.74H60.92L63.146 3.538H64.378L66.604 9.74H66.338L67.976 3.902H67.01V2.838H70.286V3.902H69.376L67.234 11H65.736L63.594 5.372H63.916L61.83 11H60.192ZM75.1917 11.14C74.305 11.14 73.5257 10.958 72.8537 10.594C72.191 10.23 71.673 9.73067 71.2997 9.096C70.9357 8.452 70.7537 7.724 70.7537 6.912C70.7537 6.09067 70.9357 5.36267 71.2997 4.728C71.673 4.09333 72.191 3.594 72.8537 3.23C73.5257 2.866 74.305 2.684 75.1917 2.684C76.097 2.684 76.881 2.866 77.5437 3.23C78.2064 3.594 78.7197 4.09333 79.0837 4.728C79.457 5.36267 79.6437 6.09067 79.6437 6.912C79.6437 7.724 79.457 8.452 79.0837 9.096C78.7197 9.73067 78.2064 10.23 77.5437 10.594C76.881 10.958 76.097 11.14 75.1917 11.14ZM75.1917 9.894C75.789 9.894 76.3024 9.77267 76.7317 9.53C77.1704 9.28733 77.511 8.94667 77.7537 8.508C78.0057 8.06 78.1317 7.53267 78.1317 6.926C78.1317 6.32867 78.0057 5.806 77.7537 5.358C77.511 4.90067 77.1704 4.55067 76.7317 4.308C76.3024 4.056 75.789 3.93 75.1917 3.93C74.6037 3.93 74.0904 4.056 73.6517 4.308C73.213 4.55067 72.8724 4.90067 72.6297 5.358C72.3964 5.806 72.2797 6.32867 72.2797 6.926C72.2797 7.53267 72.3964 8.06 72.6297 8.508C72.8724 8.94667 73.213 9.28733 73.6517 9.53C74.0904 9.77267 74.6037 9.894 75.1917 9.894ZM80.7188 11V9.936H81.6848V3.902H80.7188V2.838H85.1148C86.0855 2.838 86.8135 3.03867 87.2988 3.44C87.7935 3.84133 88.0408 4.44333 88.0408 5.246C88.0408 6.058 87.7935 6.66467 87.2988 7.066C86.8042 7.458 86.1182 7.654 85.2408 7.654H84.9888L86.0668 7.136L87.8028 9.936H88.8528V11H86.7248L84.6528 7.654H83.7848V6.59H84.8628C85.4695 6.59 85.8942 6.47333 86.1368 6.24C86.3888 5.99733 86.5148 5.666 86.5148 5.246C86.5148 4.826 86.3935 4.49933 86.1508 4.266C85.9082 4.02333 85.4788 3.902 84.8628 3.902H83.1548V9.936H84.1208V11H80.7188ZM89.6056 11V9.936H90.5716V3.902H89.6056V2.838H93.0076V3.902H92.0416V9.936H95.1076V7.822H96.1996V11H89.6056ZM97.0704 11V9.936H98.0364V3.902H97.0704V2.838H101.396C102.451 2.838 103.305 3.01067 103.958 3.356C104.621 3.692 105.106 4.168 105.414 4.784C105.732 5.39067 105.89 6.1 105.89 6.912C105.89 7.73333 105.736 8.452 105.428 9.068C105.12 9.67467 104.64 10.1507 103.986 10.496C103.333 10.832 102.479 11 101.424 11H97.0704ZM99.5064 9.936H101.27C102.045 9.936 102.656 9.81467 103.104 9.572C103.552 9.32933 103.874 8.984 104.07 8.536C104.266 8.07867 104.364 7.53733 104.364 6.912C104.364 6.296 104.266 5.764 104.07 5.316C103.874 4.85867 103.548 4.50867 103.09 4.266C102.642 4.02333 102.036 3.902 101.27 3.902H99.5064V9.936ZM110.581 11V9.936H111.477L113.801 3.902H112.821V2.838H117.511V3.902H116.531L118.855 9.936H119.751V11H116.419V9.936H117.371L116.503 7.57L116.965 7.962H113.395L113.787 7.57L112.933 9.936H113.885V11H110.581ZM113.871 7.332L113.633 6.968H116.643L116.433 7.332L115.173 3.916H115.131L113.871 7.332ZM120.285 11V9.936H121.251V3.902H120.285V2.838H123.687V3.902H122.721V9.936H123.687V11H120.285ZM128.775 11V9.936H129.741V3.902H128.775V2.838H133.171C134.142 2.838 134.87 3.03867 135.355 3.44C135.85 3.84133 136.097 4.44333 136.097 5.246C136.097 6.058 135.85 6.66467 135.355 7.066C134.87 7.458 134.142 7.654 133.171 7.654H131.841V6.59H132.989C133.503 6.59 133.895 6.478 134.165 6.254C134.436 6.02067 134.571 5.68467 134.571 5.246C134.571 4.78867 134.436 4.45267 134.165 4.238C133.904 4.014 133.512 3.902 132.989 3.902H131.211V9.936H132.513V11H128.775ZM136.892 11V10.006H137.788V6.408H136.822V5.428H139.02V6.982L138.88 6.856C139.104 6.33333 139.365 5.94133 139.664 5.68C139.972 5.41867 140.308 5.288 140.672 5.288C140.989 5.288 141.288 5.372 141.568 5.54L141.134 6.842C141.003 6.73 140.872 6.65067 140.742 6.604C140.611 6.548 140.485 6.52 140.364 6.52C140.093 6.52 139.846 6.61333 139.622 6.8C139.407 6.97733 139.234 7.22467 139.104 7.542V10.006H140.14V11H136.892ZM144.938 11.14C144.331 11.14 143.799 11.0093 143.342 10.748C142.894 10.4867 142.544 10.1367 142.292 9.698C142.049 9.25 141.928 8.75067 141.928 8.2C141.928 7.64933 142.049 7.15467 142.292 6.716C142.544 6.27733 142.894 5.932 143.342 5.68C143.799 5.41867 144.331 5.288 144.938 5.288C145.535 5.288 146.058 5.41867 146.506 5.68C146.963 5.932 147.318 6.27733 147.57 6.716C147.822 7.15467 147.948 7.64933 147.948 8.2C147.948 8.75067 147.822 9.25 147.57 9.698C147.318 10.1367 146.963 10.4867 146.506 10.748C146.058 11.0093 145.535 11.14 144.938 11.14ZM144.938 10.062C145.451 10.062 145.866 9.88933 146.184 9.544C146.51 9.19867 146.674 8.75067 146.674 8.2C146.674 7.65867 146.51 7.22 146.184 6.884C145.866 6.53867 145.451 6.366 144.938 6.366C144.406 6.366 143.981 6.53867 143.664 6.884C143.346 7.22 143.188 7.65867 143.188 8.2C143.188 8.75067 143.346 9.19867 143.664 9.544C143.981 9.88933 144.406 10.062 144.938 10.062ZM151.504 11.14C150.916 11.14 150.43 10.9813 150.048 10.664C149.674 10.3373 149.488 9.81467 149.488 9.096V6.408H148.522V5.428H149.488V3.58L150.804 3.342V5.428H152.344V6.408H150.804V8.914C150.804 9.334 150.892 9.62333 151.07 9.782C151.256 9.94067 151.508 10.02 151.826 10.02C151.947 10.02 152.068 10.006 152.19 9.978C152.311 9.94067 152.418 9.90333 152.512 9.866L152.68 10.846C152.54 10.93 152.362 11 152.148 11.056C151.942 11.112 151.728 11.14 151.504 11.14ZM156.258 11.14C155.651 11.14 155.119 11.0093 154.662 10.748C154.214 10.4867 153.864 10.1367 153.612 9.698C153.369 9.25 153.248 8.75067 153.248 8.2C153.248 7.64933 153.369 7.15467 153.612 6.716C153.864 6.27733 154.214 5.932 154.662 5.68C155.119 5.41867 155.651 5.288 156.258 5.288C156.855 5.288 157.378 5.41867 157.826 5.68C158.283 5.932 158.638 6.27733 158.89 6.716C159.142 7.15467 159.268 7.64933 159.268 8.2C159.268 8.75067 159.142 9.25 158.89 9.698C158.638 10.1367 158.283 10.4867 157.826 10.748C157.378 11.0093 156.855 11.14 156.258 11.14ZM156.258 10.062C156.771 10.062 157.187 9.88933 157.504 9.544C157.831 9.19867 157.994 8.75067 157.994 8.2C157.994 7.65867 157.831 7.22 157.504 6.884C157.187 6.53867 156.771 6.366 156.258 6.366C155.726 6.366 155.301 6.53867 154.984 6.884C154.667 7.22 154.508 7.65867 154.508 8.2C154.508 8.75067 154.667 9.19867 154.984 9.544C155.301 9.88933 155.726 10.062 156.258 10.062ZM163.356 11.14C162.712 11.14 162.156 11.0093 161.69 10.748C161.232 10.4867 160.878 10.132 160.626 9.684C160.383 9.236 160.262 8.73667 160.262 8.186C160.262 7.654 160.374 7.16867 160.598 6.73C160.822 6.29133 161.144 5.94133 161.564 5.68C161.984 5.41867 162.492 5.288 163.09 5.288C163.379 5.288 163.654 5.33933 163.916 5.442C164.177 5.53533 164.396 5.67533 164.574 5.862C164.751 6.03933 164.849 6.24933 164.868 6.492L164.714 6.52V5.428H165.652V7.444H164.812C164.588 6.744 164.06 6.394 163.23 6.394C162.66 6.394 162.231 6.56667 161.942 6.912C161.662 7.248 161.522 7.67733 161.522 8.2C161.522 8.732 161.685 9.17533 162.012 9.53C162.348 9.87533 162.819 10.048 163.426 10.048C163.762 10.048 164.088 9.978 164.406 9.838C164.723 9.698 164.984 9.52533 165.19 9.32L165.778 10.23C165.507 10.5193 165.143 10.7433 164.686 10.902C164.228 11.0607 163.785 11.14 163.356 11.14ZM169.711 11.14C169.105 11.14 168.573 11.0093 168.115 10.748C167.667 10.4867 167.317 10.1367 167.065 9.698C166.823 9.25 166.701 8.75067 166.701 8.2C166.701 7.64933 166.823 7.15467 167.065 6.716C167.317 6.27733 167.667 5.932 168.115 5.68C168.573 5.41867 169.105 5.288 169.711 5.288C170.309 5.288 170.831 5.41867 171.279 5.68C171.737 5.932 172.091 6.27733 172.343 6.716C172.595 7.15467 172.721 7.64933 172.721 8.2C172.721 8.75067 172.595 9.25 172.343 9.698C172.091 10.1367 171.737 10.4867 171.279 10.748C170.831 11.0093 170.309 11.14 169.711 11.14ZM169.711 10.062C170.225 10.062 170.64 9.88933 170.957 9.544C171.284 9.19867 171.447 8.75067 171.447 8.2C171.447 7.65867 171.284 7.22 170.957 6.884C170.64 6.53867 170.225 6.366 169.711 6.366C169.179 6.366 168.755 6.53867 168.437 6.884C168.12 7.22 167.961 7.65867 167.961 8.2C167.961 8.75067 168.12 9.19867 168.437 9.544C168.755 9.88933 169.179 10.062 169.711 10.062ZM173.407 11V10.006H174.317V3.832H173.351V2.838H175.633V10.006H176.487V11H173.407Z" fill="#7498C9"/>
    <path d="M0 8H53" stroke="#2E558A" stroke-dasharray="2 2"/>
</svg>