<svg width="197" height="26" viewBox="0 0 197 26" fill="none" xmlns="http://www.w3.org/2000/svg">
    <path d="M88.2975 16L85.6375 8.902H84.7275V7.838H88.1435V8.902H87.1635L89.3195 14.74H89.0395L91.1955 8.902H90.2155V7.838H93.5335V8.902H92.6375L89.9635 16H88.2975ZM93.5928 16V15.006H94.4888V11.408H93.5228V10.428H95.8048V15.006H96.6308V16H93.5928ZM95.1468 9.49C94.8762 9.49 94.6662 9.41067 94.5168 9.252C94.3675 9.09333 94.2928 8.89733 94.2928 8.664C94.2928 8.412 94.3675 8.20667 94.5168 8.048C94.6662 7.88 94.8762 7.796 95.1468 7.796C95.4082 7.796 95.6135 7.88 95.7628 8.048C95.9122 8.20667 95.9868 8.412 95.9868 8.664C95.9868 8.89733 95.9122 9.09333 95.7628 9.252C95.6135 9.41067 95.4082 9.49 95.1468 9.49ZM100.505 16.14C99.8512 16.14 99.3472 16.0327 98.9926 15.818C98.6472 15.594 98.4092 15.286 98.2786 14.894L98.6006 14.796V16H97.6626V14.082H98.5026C98.5492 14.3433 98.6566 14.5673 98.8246 14.754C98.9926 14.9313 99.2026 15.0667 99.4546 15.16C99.7066 15.2533 99.9772 15.3 100.267 15.3C100.659 15.3 100.948 15.2347 101.135 15.104C101.321 14.9733 101.415 14.8053 101.415 14.6C101.415 14.4507 101.354 14.3247 101.233 14.222C101.121 14.11 100.887 14.0073 100.533 13.914L99.2306 13.592C98.7452 13.4613 98.3626 13.27 98.0826 13.018C97.8026 12.766 97.6626 12.43 97.6626 12.01C97.6626 11.646 97.7512 11.3333 97.9286 11.072C98.1152 10.8107 98.3766 10.6147 98.7126 10.484C99.0486 10.344 99.4359 10.274 99.8746 10.274C100.388 10.274 100.794 10.372 101.093 10.568C101.401 10.764 101.611 11.0393 101.723 11.394L101.415 11.408V10.428H102.367V12.206H101.513C101.494 11.9447 101.415 11.7347 101.275 11.576C101.135 11.4173 100.962 11.3007 100.757 11.226C100.551 11.1513 100.332 11.114 100.099 11.114C99.7159 11.114 99.4266 11.1793 99.2306 11.31C99.0439 11.4407 98.9506 11.6087 98.9506 11.814C98.9506 11.9913 99.0159 12.1267 99.1466 12.22C99.2772 12.3133 99.4966 12.402 99.8046 12.486L101.107 12.794C101.62 12.9153 102.012 13.102 102.283 13.354C102.563 13.606 102.703 13.97 102.703 14.446C102.703 14.7913 102.609 15.09 102.423 15.342C102.245 15.594 101.993 15.79 101.667 15.93C101.34 16.07 100.953 16.14 100.505 16.14ZM106.151 16.14C105.601 16.14 105.143 15.986 104.779 15.678C104.425 15.3607 104.247 14.8753 104.247 14.222V11.408H103.281V10.428H105.563V13.914C105.563 14.2967 105.647 14.5767 105.815 14.754C105.993 14.9313 106.273 15.02 106.655 15.02C106.935 15.02 107.225 14.964 107.523 14.852C107.822 14.7307 108.125 14.5347 108.433 14.264L108.153 14.698V11.408H107.257V10.428H109.469V15.006H110.295V16H108.265V15.16L108.531 15.118C108.177 15.4633 107.794 15.72 107.383 15.888C106.973 16.056 106.562 16.14 106.151 16.14ZM113.294 16.14C112.622 16.14 112.109 15.986 111.754 15.678C111.399 15.37 111.222 14.964 111.222 14.46C111.222 13.928 111.413 13.5173 111.796 13.228C112.188 12.9293 112.757 12.78 113.504 12.78C113.756 12.78 114.036 12.8033 114.344 12.85C114.661 12.8967 114.955 12.9573 115.226 13.032L115.002 13.186V12.514C115.002 12.1593 114.885 11.8887 114.652 11.702C114.419 11.506 114.069 11.408 113.602 11.408C113.285 11.408 112.972 11.45 112.664 11.534C112.356 11.618 112.062 11.7393 111.782 11.898L111.46 10.862C111.815 10.666 112.197 10.5213 112.608 10.428C113.019 10.3347 113.392 10.288 113.728 10.288C114.568 10.288 115.207 10.4793 115.646 10.862C116.085 11.2353 116.304 11.7907 116.304 12.528V15.006H117.13V16H115.1V15.104L115.282 15.258C115.039 15.538 114.736 15.7573 114.372 15.916C114.008 16.0653 113.649 16.14 113.294 16.14ZM113.588 15.132C113.868 15.132 114.153 15.076 114.442 14.964C114.741 14.852 114.969 14.7073 115.128 14.53L115.002 14.922V13.564L115.226 13.928C114.965 13.8533 114.708 13.802 114.456 13.774C114.204 13.7367 113.961 13.718 113.728 13.718C113.336 13.718 113.033 13.7787 112.818 13.9C112.603 14.0213 112.496 14.2033 112.496 14.446C112.496 14.67 112.589 14.8427 112.776 14.964C112.963 15.076 113.233 15.132 113.588 15.132ZM117.544 16V15.006H118.454V8.832H117.488V7.838H119.77V15.006H120.624V16H117.544ZM121.169 16V15.006H122.065V11.408H121.099V10.428H123.381V15.006H124.207V16H121.169ZM122.723 9.49C122.452 9.49 122.242 9.41067 122.093 9.252C121.944 9.09333 121.869 8.89733 121.869 8.664C121.869 8.412 121.944 8.20667 122.093 8.048C122.242 7.88 122.452 7.796 122.723 7.796C122.984 7.796 123.19 7.88 123.339 8.048C123.488 8.20667 123.563 8.412 123.563 8.664C123.563 8.89733 123.488 9.09333 123.339 9.252C123.19 9.41067 122.984 9.49 122.723 9.49ZM125.211 16V15.216L128.851 11.002L129.033 11.408H126.205V12.416H125.267V10.428H130.167V11.212L126.541 15.44L126.373 15.006H129.341V13.83H130.279V16H125.211ZM133.405 16.14C132.733 16.14 132.22 15.986 131.865 15.678C131.511 15.37 131.333 14.964 131.333 14.46C131.333 13.928 131.525 13.5173 131.907 13.228C132.299 12.9293 132.869 12.78 133.615 12.78C133.867 12.78 134.147 12.8033 134.455 12.85C134.773 12.8967 135.067 12.9573 135.337 13.032L135.113 13.186V12.514C135.113 12.1593 134.997 11.8887 134.763 11.702C134.53 11.506 134.18 11.408 133.713 11.408C133.396 11.408 133.083 11.45 132.775 11.534C132.467 11.618 132.173 11.7393 131.893 11.898L131.571 10.862C131.926 10.666 132.309 10.5213 132.719 10.428C133.13 10.3347 133.503 10.288 133.839 10.288C134.679 10.288 135.319 10.4793 135.757 10.862C136.196 11.2353 136.415 11.7907 136.415 12.528V15.006H137.241V16H135.211V15.104L135.393 15.258C135.151 15.538 134.847 15.7573 134.483 15.916C134.119 16.0653 133.76 16.14 133.405 16.14ZM133.699 15.132C133.979 15.132 134.264 15.076 134.553 14.964C134.852 14.852 135.081 14.7073 135.239 14.53L135.113 14.922V13.564L135.337 13.928C135.076 13.8533 134.819 13.802 134.567 13.774C134.315 13.7367 134.073 13.718 133.839 13.718C133.447 13.718 133.144 13.7787 132.929 13.9C132.715 14.0213 132.607 14.2033 132.607 14.446C132.607 14.67 132.701 14.8427 132.887 14.964C133.074 15.076 133.345 15.132 133.699 15.132ZM140.525 16.14C139.937 16.14 139.452 15.9813 139.069 15.664C138.696 15.3373 138.509 14.8147 138.509 14.096V11.408H137.543V10.428H138.509V8.58L139.825 8.342V10.428H141.365V11.408H139.825V13.914C139.825 14.334 139.914 14.6233 140.091 14.782C140.278 14.9407 140.53 15.02 140.847 15.02C140.968 15.02 141.09 15.006 141.211 14.978C141.332 14.9407 141.44 14.9033 141.533 14.866L141.701 15.846C141.561 15.93 141.384 16 141.169 16.056C140.964 16.112 140.749 16.14 140.525 16.14ZM142.101 16V15.006H142.997V11.408H142.031V10.428H144.313V15.006H145.139V16H142.101ZM143.655 9.49C143.384 9.49 143.174 9.41067 143.025 9.252C142.875 9.09333 142.801 8.89733 142.801 8.664C142.801 8.412 142.875 8.20667 143.025 8.048C143.174 7.88 143.384 7.796 143.655 7.796C143.916 7.796 144.121 7.88 144.271 8.048C144.42 8.20667 144.495 8.412 144.495 8.664C144.495 8.89733 144.42 9.09333 144.271 9.252C144.121 9.41067 143.916 9.49 143.655 9.49ZM148.998 16.14C148.392 16.14 147.86 16.0093 147.402 15.748C146.954 15.4867 146.604 15.1367 146.352 14.698C146.11 14.25 145.988 13.7507 145.988 13.2C145.988 12.6493 146.11 12.1547 146.352 11.716C146.604 11.2773 146.954 10.932 147.402 10.68C147.86 10.4187 148.392 10.288 148.998 10.288C149.596 10.288 150.118 10.4187 150.566 10.68C151.024 10.932 151.378 11.2773 151.63 11.716C151.882 12.1547 152.008 12.6493 152.008 13.2C152.008 13.7507 151.882 14.25 151.63 14.698C151.378 15.1367 151.024 15.4867 150.566 15.748C150.118 16.0093 149.596 16.14 148.998 16.14ZM148.998 15.062C149.512 15.062 149.927 14.8893 150.244 14.544C150.571 14.1987 150.734 13.7507 150.734 13.2C150.734 12.6587 150.571 12.22 150.244 11.884C149.927 11.5387 149.512 11.366 148.998 11.366C148.466 11.366 148.042 11.5387 147.724 11.884C147.407 12.22 147.248 12.6587 147.248 13.2C147.248 13.7507 147.407 14.1987 147.724 14.544C148.042 14.8893 148.466 15.062 148.998 15.062ZM152.792 16V15.006H153.688V11.408H152.722V10.428H154.92V11.268L154.738 11.31C155.093 10.9553 155.475 10.6987 155.886 10.54C156.306 10.372 156.717 10.288 157.118 10.288C157.715 10.288 158.177 10.442 158.504 10.75C158.84 11.058 159.008 11.5433 159.008 12.206V15.006H159.834V16H156.796V15.006H157.692V12.514C157.692 12.1313 157.603 11.8513 157.426 11.674C157.258 11.4967 156.983 11.408 156.6 11.408C156.32 11.408 156.035 11.464 155.746 11.576C155.457 11.6787 155.153 11.8653 154.836 12.136L155.004 11.702V15.006H155.844V16H152.792ZM164.65 16V14.936H165.616V8.902H164.65V7.838H168.052V8.902H167.086V14.936H170.152V12.822H171.244V16H164.65ZM174.243 16.14C173.571 16.14 173.058 15.986 172.703 15.678C172.349 15.37 172.171 14.964 172.171 14.46C172.171 13.928 172.363 13.5173 172.745 13.228C173.137 12.9293 173.707 12.78 174.453 12.78C174.705 12.78 174.985 12.8033 175.293 12.85C175.611 12.8967 175.905 12.9573 176.175 13.032L175.951 13.186V12.514C175.951 12.1593 175.835 11.8887 175.601 11.702C175.368 11.506 175.018 11.408 174.551 11.408C174.234 11.408 173.921 11.45 173.613 11.534C173.305 11.618 173.011 11.7393 172.731 11.898L172.409 10.862C172.764 10.666 173.147 10.5213 173.557 10.428C173.968 10.3347 174.341 10.288 174.677 10.288C175.517 10.288 176.157 10.4793 176.595 10.862C177.034 11.2353 177.253 11.7907 177.253 12.528V15.006H178.079V16H176.049V15.104L176.231 15.258C175.989 15.538 175.685 15.7573 175.321 15.916C174.957 16.0653 174.598 16.14 174.243 16.14ZM174.537 15.132C174.817 15.132 175.102 15.076 175.391 14.964C175.69 14.852 175.919 14.7073 176.077 14.53L175.951 14.922V13.564L176.175 13.928C175.914 13.8533 175.657 13.802 175.405 13.774C175.153 13.7367 174.911 13.718 174.677 13.718C174.285 13.718 173.982 13.7787 173.767 13.9C173.553 14.0213 173.445 14.2033 173.445 14.446C173.445 14.67 173.539 14.8427 173.725 14.964C173.912 15.076 174.183 15.132 174.537 15.132ZM179.77 18.394H178.818V17.246H179.658C179.929 17.246 180.143 17.19 180.302 17.078C180.47 16.9753 180.61 16.8027 180.722 16.56L181.198 15.608L181.576 16H180.736L178.93 11.408H178.202V10.428H181.17V11.408H180.33L181.646 15.034L181.464 15.118L183.214 11.408H182.374V10.428H185.23V11.408H184.502L181.758 17.106C181.543 17.5633 181.282 17.89 180.974 18.086C180.675 18.2913 180.274 18.394 179.77 18.394ZM188.858 16.14C188.139 16.14 187.533 16.0093 187.038 15.748C186.553 15.4867 186.189 15.1367 185.946 14.698C185.703 14.25 185.582 13.7507 185.582 13.2C185.582 12.6587 185.699 12.1687 185.932 11.73C186.175 11.2913 186.52 10.9413 186.968 10.68C187.416 10.4187 187.939 10.288 188.536 10.288C189.152 10.288 189.679 10.4187 190.118 10.68C190.557 10.9413 190.893 11.2913 191.126 11.73C191.359 12.1687 191.476 12.6633 191.476 13.214V13.746H186.31V12.724H190.23C190.23 12.4907 190.16 12.2667 190.02 12.052C189.889 11.828 189.698 11.6413 189.446 11.492C189.203 11.3427 188.9 11.268 188.536 11.268C188.172 11.268 187.864 11.3473 187.612 11.506C187.36 11.6553 187.164 11.8513 187.024 12.094C186.893 12.3367 186.828 12.5887 186.828 12.85V13.2C186.828 13.7693 187.001 14.222 187.346 14.558C187.691 14.8847 188.209 15.048 188.9 15.048C189.292 15.048 189.661 14.9827 190.006 14.852C190.361 14.7213 190.655 14.5533 190.888 14.348L191.434 15.272C191.135 15.5427 190.757 15.7573 190.3 15.916C189.852 16.0653 189.371 16.14 188.858 16.14ZM192.276 16V15.006H193.172V11.408H192.206V10.428H194.404V11.982L194.264 11.856C194.488 11.3333 194.75 10.9413 195.048 10.68C195.356 10.4187 195.692 10.288 196.056 10.288C196.374 10.288 196.672 10.372 196.952 10.54L196.518 11.842C196.388 11.73 196.257 11.6507 196.126 11.604C195.996 11.548 195.87 11.52 195.748 11.52C195.478 11.52 195.23 11.6133 195.006 11.8C194.792 11.9773 194.619 12.2247 194.488 12.542V15.006H195.524V16H192.276Z" fill="#A292D3"/>
    <path d="M0 13L80 13" stroke="#8973C3" stroke-dasharray="2 2"/>
</svg>