<svg width="16" height="17" viewBox="0 0 16 17" fill="none" xmlns="http://www.w3.org/2000/svg">
    <g clip-path="url(#clip0_45_674)">
    <path d="M12.6712 6.83334V6.21031C13.2322 6.17946 13.7947 6.18463 14.355 6.22578C14.6349 6.28148 14.8855 6.43534 15.0619 6.65961C15.2383 6.88388 15.3286 7.1638 15.3168 7.44885C15.3302 8.28848 15.3218 9.12854 15.3226 9.96859V11.9677C15.3083 12.441 15.1513 12.8988 14.8722 13.2813C14.5931 13.6638 14.205 13.953 13.7588 14.1111C13.7324 14.1195 13.7065 14.1295 13.6601 14.1463V15.5525C13.6601 15.7469 13.6647 15.9414 13.6601 16.1354C13.6627 16.1825 13.6555 16.2297 13.639 16.274C13.6226 16.3183 13.5971 16.3587 13.5643 16.3927C13.5315 16.4267 13.492 16.4535 13.4483 16.4716C13.4047 16.4896 13.3578 16.4984 13.3105 16.4975C13.2624 16.5017 13.2135 16.4975 13.165 16.4975H6.50062C6.09418 16.4975 5.99508 16.3992 5.99508 15.9957V13.6424C5.99508 13.5521 5.99508 13.4613 5.98881 13.3719C5.95202 12.9433 5.82783 12.8283 5.40341 12.8283H3.69571C3.51492 12.8378 3.33414 12.8095 3.16493 12.7451C2.99573 12.6807 2.84184 12.5817 2.71312 12.4544C2.5844 12.3271 2.48369 12.1743 2.41743 12.0058C2.35118 11.8373 2.32085 11.6569 2.32838 11.476C2.3242 11.1833 2.31751 10.8906 2.33131 10.6017C2.34347 10.5366 2.33027 10.4694 2.29442 10.4138C2.25857 10.3582 2.20279 10.3184 2.13854 10.3027C1.95573 10.2423 1.76795 10.1983 1.57739 10.171C1.36838 10.1535 1.17018 10.0706 1.01097 9.93407C0.851753 9.79753 0.739622 9.61428 0.690508 9.41037C0.64677 9.23435 0.673318 9.04822 0.764519 8.89145C1.26629 7.99606 1.76124 7.09691 2.24935 6.194C2.30315 6.08321 2.32858 5.96079 2.32336 5.83774C2.2796 4.91114 2.48385 3.98964 2.91503 3.16831C3.23569 2.55406 3.68212 2.01423 4.22527 1.58398C4.76841 1.15373 5.39609 0.842706 6.06742 0.671154C6.58362 0.540331 7.11587 0.484008 7.64801 0.503896V1.14366C7.29175 1.17502 6.93716 1.17836 6.59261 1.2415C5.58579 1.40721 4.67134 1.92729 4.01424 2.70791C3.35714 3.48853 3.00066 4.47829 3.00912 5.49863C3.01381 6.00899 2.87548 6.51047 2.60979 6.94624C2.19541 7.64329 1.8195 8.365 1.42895 9.07585C1.29013 9.32674 1.36874 9.47225 1.66562 9.5011C2.06919 9.53058 2.45542 9.67705 2.77705 9.92259C2.85044 9.97449 2.90934 10.0443 2.94813 10.1254C2.98692 10.2065 3.00432 10.2962 2.99866 10.3859C2.99114 10.7539 2.99448 11.1218 2.99866 11.4898C2.99128 11.5804 3.00362 11.6715 3.03482 11.7569C3.06602 11.8423 3.11534 11.9199 3.1794 11.9844C3.24345 12.0488 3.32071 12.0987 3.40587 12.1305C3.49103 12.1623 3.58207 12.1752 3.67271 12.1684C4.2556 12.1718 4.84059 12.1969 5.42181 12.163C6.27524 12.1132 6.63443 12.7166 6.65742 13.384C6.68084 14.112 6.66453 14.8416 6.66537 15.5705V15.8147H12.9839C12.9869 15.7519 12.9927 15.6792 12.9927 15.6056V13.9397C12.9927 13.6311 13.0872 13.5266 13.3921 13.4977C13.5554 13.4858 13.7141 13.4384 13.8573 13.359C14.0005 13.2796 14.1246 13.17 14.2212 13.0378C14.5072 12.6857 14.6636 12.2461 14.6645 11.7925C14.6519 10.3905 14.6603 8.98804 14.6599 7.586C14.6766 7.48368 14.6687 7.37886 14.637 7.28016C14.6053 7.18145 14.5507 7.09167 14.4775 7.0182C14.4044 6.94473 14.3149 6.88966 14.2163 6.85753C14.1177 6.82539 14.0129 6.8171 13.9106 6.83334H12.6712Z" fill="#fff"/>
    <path d="M8.32654 3.48816V2.51514H8.9847V3.48774H9.65708V2.51848H10.3232V3.48732H10.988V2.51848H11.6604V3.50154C11.8527 3.47022 12.0497 3.48415 12.2358 3.54221C12.4218 3.60028 12.5917 3.70088 12.7321 3.83605C12.8941 4.0167 12.9852 4.24992 12.9884 4.49254H12.3353C12.283 4.22869 12.094 4.17057 11.844 4.17182C10.6017 4.1781 9.35978 4.17433 8.11789 4.17517C7.82184 4.17517 7.76037 4.21698 7.64706 4.49714H7.01231C7.00479 3.86992 7.39324 3.57053 8.32654 3.4915" fill="#fff"/>
    <path d="M12.3352 8.50781H12.9846C12.9965 8.66484 12.9642 8.82207 12.8913 8.96167C12.8184 9.10128 12.7079 9.21768 12.5723 9.29769C12.2786 9.42041 11.9743 9.516 11.6632 9.58328V10.4835H10.9942V9.51847H10.331V10.4894H9.67203V9.51889H8.99965V10.4898H8.33438V9.50592C8.13277 9.54425 7.92465 9.52935 7.73055 9.46269C7.53645 9.39604 7.36309 9.27993 7.22755 9.12583C7.11325 8.92957 7.01683 8.72343 6.93945 8.5099H7.6503C7.70507 8.79884 7.91833 8.83689 8.17758 8.83522C9.39884 8.82825 10.6201 8.82825 11.8414 8.83522C12.0922 8.83522 12.2821 8.78128 12.3343 8.50781" fill="#fff"/>
    <path d="M10.3157 7.82318H9.66758V7.1876H9.00273V7.82277H8.35711C8.34792 7.80478 8.33119 7.78722 8.33119 7.76924C8.33119 7.10356 8.3199 6.43787 8.33119 5.7726C8.33837 5.6143 8.40549 5.46465 8.51894 5.354C8.63238 5.24335 8.78366 5.17998 8.9421 5.17675C9.19843 5.16504 9.45516 5.16504 9.71148 5.17675C9.85978 5.17623 10.0029 5.23099 10.113 5.33034C10.2231 5.42969 10.2923 5.5665 10.3069 5.71406C10.3287 6.41153 10.314 7.11025 10.314 7.82444M9.64918 5.84954H9.009V6.49349H9.64918V5.84954Z" fill="#fff"/>
    <path d="M11.0098 5.17725H11.6445V7.82033H11.0098V5.17725Z" fill="#fff"/>
    <path d="M6.01172 4.84863H7.31591V5.48881H6.01172V4.84863Z" fill="#fff"/>
    <path d="M12.6733 4.84277H13.9754V5.48797H12.6733V4.84277Z" fill="#fff"/>
    <path d="M6.01221 6.17578H7.30804V6.81972H6.01221V6.17578Z" fill="#fff"/>
    <path d="M6.01221 7.5083H7.3118V8.15768H6.01221V7.5083Z" fill="#fff"/>
    <path d="M12.6763 7.51855H13.9826V8.15873H12.6763V7.51855Z" fill="#fff"/>
    <path d="M8.33789 1.18555H8.9764V1.82071H8.33789V1.18555Z" fill="#fff"/>
    <path d="M9.67822 1.18359H10.3142V1.82085H9.67822V1.18359Z" fill="#fff"/>
    <path d="M11.001 1.18652H11.6495V1.81708H11.001V1.18652Z" fill="#fff"/>
    <path d="M4.67529 4.85059H5.30836V5.4916H4.67529V4.85059Z" fill="#fff"/>
    <path d="M14.6729 4.8457H15.3101V5.4909H14.6729V4.8457Z" fill="#fff"/>
    <path d="M4.67529 6.18262H5.31254V6.81652H4.67529V6.18262Z" fill="#fff"/>
    <path d="M4.68018 7.51367H5.31743V8.15594H4.68018V7.51367Z" fill="#fff"/>
    <path d="M8.34277 11.1802H8.97961V11.8208H8.34277V11.1802Z" fill="#fff"/>
    <path d="M9.67871 11.1807H10.3139V11.8179H9.67871V11.1807Z" fill="#fff"/>
    <path d="M11.0073 11.1782H11.6467V11.8146H11.0073V11.1782Z" fill="#fff"/>
    </g>
    <defs>
    <clipPath id="clip0_45_674">
    <rect width="16" height="16" fill="white" transform="translate(0 0.5)"/>
    </clipPath>
    </defs>
</svg>