<svg width="14" height="14" viewBox="0 0 14 14" fill="none" xmlns="http://www.w3.org/2000/svg">
    <path d="M12 0.4375C12.8629 0.4375 13.5625 1.13706 13.5625 2V12C13.5625 12.8629 12.8629 13.5625 12 13.5625H2C1.13706 13.5625 0.4375 12.8629 0.4375 12V2C0.4375 1.13706 1.13706 0.4375 2 0.4375H12Z" stroke="#C2C0CC" stroke-width="0.875"/>
    <path d="M3.59639 7.24512H4.55889L4.54139 5.83637L4.55014 5.25012H8.49639V6.36137L10.5789 4.72512L8.49639 3.08887V4.19137H3.52639L3.48264 5.83637V7.24512H3.59639ZM3.42139 9.37137L5.50389 11.0076V9.89637H8.88139L10.5176 9.88762V6.85137H9.45014L9.45889 8.84637H5.49514V7.74387L3.42139 9.37137C3.42139 9.37137 3.47389 9.41512 3.53514 9.45887L3.42139 9.37137Z" fill="#C2C0CC"/>
</svg>