<svg width="18" height="18" viewBox="0 0 18 18" fill="none" xmlns="http://www.w3.org/2000/svg">
    <path d="M14.622 1.12402H3.37402C2.13139 1.12402 1.12402 2.13139 1.12402 3.37402V14.622C1.12402 15.8646 2.13139 16.872 3.37402 16.872H14.622C15.8646 16.872 16.872 15.8646 16.872 14.622V3.37402C16.872 2.13139 15.8646 1.12402 14.622 1.12402ZM15.7481 14.6251C15.7482 14.7727 15.7192 14.9189 15.6627 15.0553C15.6062 15.1917 15.5233 15.3156 15.4189 15.4199C15.3144 15.5243 15.1904 15.6069 15.0539 15.6632C14.9174 15.7196 14.7712 15.7484 14.6235 15.7481H3.37662C3.07582 15.7481 2.79179 15.6325 2.57906 15.4198C2.36634 15.207 2.24797 14.9259 2.24797 14.6251V3.3751C2.24851 3.07606 2.36764 2.78946 2.57923 2.57815C2.79082 2.36685 3.07759 2.24811 3.37662 2.24797H14.6235C14.7714 2.24812 14.9178 2.2774 15.0543 2.33413C15.1908 2.39085 15.3148 2.47392 15.4193 2.57859C15.5237 2.68326 15.6065 2.80747 15.6629 2.94414C15.7193 3.0808 15.7482 3.22724 15.7481 3.3751V14.6251Z" fill="#C2C0CC"/>
    <path d="M13.9218 6.18507H9.42181C9.27277 6.18507 9.12983 6.24427 9.02444 6.34966C8.91905 6.45505 8.85984 6.598 8.85984 6.74704C8.85984 6.89608 8.91905 7.03902 9.02444 7.14442C9.12983 7.24981 9.27277 7.30901 9.42181 7.30901H13.9218C14.0708 7.30901 14.2138 7.24981 14.3192 7.14442C14.4246 7.03902 14.4838 6.89608 14.4838 6.74704C14.4838 6.598 14.4246 6.45505 14.3192 6.34966C14.2138 6.24427 14.0708 6.18507 13.9218 6.18507ZM13.9218 10.6872H9.42181C9.27277 10.6872 9.12983 10.7464 9.02444 10.8518C8.91905 10.9572 8.85984 11.1001 8.85984 11.2492C8.85984 11.3982 8.91905 11.5412 9.02444 11.6466C9.12983 11.7519 9.27277 11.8112 9.42181 11.8112H13.9218C14.0708 11.8112 14.2138 11.7519 14.3192 11.6466C14.4246 11.5412 14.4838 11.3982 14.4838 11.2492C14.4838 11.1001 14.4246 10.9572 14.3192 10.8518C14.2138 10.7464 14.0708 10.6872 13.9218 10.6872ZM6.04686 9.28138C4.95955 9.28138 4.07836 10.1628 4.07836 11.2499C4.07836 12.3369 4.9598 13.2184 6.04686 13.2184C7.13391 13.2184 8.01535 12.3369 8.01535 11.2499C8.01535 10.1628 7.13417 9.28138 6.04686 9.28138ZM6.6442 11.8475C6.50598 11.9856 6.32416 12.0715 6.12971 12.0905C5.93527 12.1096 5.74022 12.0606 5.57782 11.952C5.41541 11.8434 5.29568 11.6819 5.23903 11.4949C5.18238 11.3079 5.19232 11.107 5.26714 10.9266C5.34197 10.7461 5.47706 10.5971 5.64939 10.5051C5.82172 10.413 6.02064 10.3836 6.21226 10.4217C6.40388 10.4599 6.57633 10.5633 6.70025 10.7144C6.82417 10.8654 6.89188 11.0548 6.89185 11.2501C6.89213 11.3611 6.87039 11.4711 6.82788 11.5736C6.78537 11.6762 6.72294 11.7693 6.6442 11.8475V11.8475ZM7.33698 5.2278L5.48431 7.08041L4.75673 6.35277C4.65134 6.24738 4.50839 6.18817 4.35935 6.18817C4.2103 6.18817 4.06736 6.24738 3.96196 6.35277C3.85657 6.45816 3.79736 6.6011 3.79736 6.75015C3.79736 6.8992 3.85657 7.04214 3.96196 7.14753L5.08693 8.27256C5.13911 8.32475 5.20107 8.36614 5.26925 8.39439C5.33743 8.42263 5.41051 8.43717 5.48431 8.43717C5.55811 8.43717 5.63119 8.42263 5.69937 8.39439C5.76756 8.36614 5.82951 8.32475 5.88169 8.27256L8.13169 6.02257C8.2359 5.91694 8.2941 5.77438 8.2936 5.626C8.2931 5.47762 8.23394 5.33546 8.12902 5.23053C8.0241 5.12561 7.88195 5.06643 7.73357 5.06592C7.58518 5.06541 7.44262 5.1236 7.33698 5.2278Z" fill="#C2C0CC"/>
</svg>