<svg width="20" height="20" viewBox="0 0 20 20" fill="none" xmlns="http://www.w3.org/2000/svg">
    <path d="M11.0725 18.0604H8.93068C7.74945 18.0604 6.78886 17.0998 6.78886 15.9186V14.9869C6.78886 14.242 6.3471 13.1074 5.84378 12.5586C5.7956 12.505 4.64705 11.2317 4.64705 9.37422C4.64705 6.4217 7.0491 4.01967 10.0016 4.01967C12.9541 4.01967 15.3561 6.4217 15.3561 9.37422C15.3561 11.2322 14.2076 12.5056 14.1594 12.5586C13.6555 13.1069 13.2143 14.242 13.2143 14.9869V15.9186C13.2143 17.0998 12.2537 18.0604 11.0725 18.0604ZM10.0016 5.09059C7.6397 5.09059 5.71796 7.01232 5.71796 9.37422C5.71796 10.8199 6.62396 11.825 6.63359 11.8352C7.32111 12.5848 7.85978 13.9695 7.85978 14.9874V15.9191C7.85978 16.5097 8.34007 16.99 8.9307 16.99H11.0725C11.6631 16.99 12.1434 16.5097 12.1434 15.9191V14.9874C12.1434 13.9695 12.6821 12.5854 13.3696 11.8352C13.3777 11.8261 14.2852 10.8044 14.2852 9.37422C14.2852 7.01232 12.3635 5.09059 10.0016 5.09059ZM12.1434 11.153C11.9191 11.153 11.7102 11.0111 11.6358 10.7868L11.374 10.0023L10.3807 10.9961C10.1713 11.2055 9.83292 11.2055 9.62355 10.9961L8.62976 10.0023L8.36845 10.7868C8.27474 11.0668 7.97222 11.2199 7.69111 11.1252C7.41054 11.032 7.259 10.7289 7.35271 10.4478L7.88816 8.84144C7.91709 8.75489 7.96764 8.67716 8.035 8.6156C8.10237 8.55403 8.18434 8.51068 8.27314 8.48965C8.45306 8.44682 8.64367 8.50088 8.77486 8.63207L10.0016 9.86041L11.2294 8.63262C11.3601 8.50143 11.5501 8.44789 11.7311 8.49018C11.82 8.51113 11.902 8.55445 11.9694 8.61603C12.0367 8.6776 12.0873 8.75538 12.1161 8.84197L12.6516 10.4483C12.7453 10.7289 12.5937 11.0325 12.3132 11.1257C12.2564 11.1439 12.1991 11.153 12.1434 11.153ZM15.8862 5.80381C15.7401 5.80381 15.5944 5.74436 15.4889 5.62711C15.2908 5.40758 15.3079 5.06916 15.5275 4.87051L16.0715 4.38004C16.2905 4.18191 16.6289 4.19904 16.8276 4.4191C17.0257 4.63863 17.0086 4.97707 16.789 5.1757L16.245 5.66564C16.1427 5.7583 16.0142 5.80381 15.8862 5.80381ZM4.11749 5.80381C3.98515 5.80398 3.85746 5.75493 3.75927 5.66619L3.21525 5.17518C2.99572 4.97705 2.97857 4.63863 3.17617 4.41857C3.37374 4.1985 3.71214 4.18137 3.93277 4.37947L4.47677 4.86996C4.6963 5.06809 4.71343 5.40648 4.51587 5.62654C4.46563 5.68239 4.40419 5.72704 4.33555 5.75758C4.26691 5.78812 4.19262 5.80387 4.11749 5.80381ZM10.0016 3.65664C9.70603 3.65664 9.46615 3.41676 9.46615 3.12119V2.58574C9.46615 2.29018 9.70603 2.05029 10.0016 2.05029C10.2972 2.05029 10.537 2.29018 10.537 2.58574V3.12119C10.537 3.41676 10.2972 3.65664 10.0016 3.65664ZM11.0725 15.9721H8.93068C8.63511 15.9721 8.39523 15.7328 8.39523 15.4367C8.39523 15.1405 8.63511 14.9012 8.93068 14.9012H11.0725C11.3686 14.9012 11.6079 15.1405 11.6079 15.4367C11.6079 15.7328 11.3686 15.9721 11.0725 15.9721Z" fill="#C2C0CC"/>
</svg>