<svg width="20" height="19" viewBox="0 0 20 19" fill="none" xmlns="http://www.w3.org/2000/svg">
    <path d="M9.74651 18.7061L9.74649 18.7062L9.74864 18.7072C9.79772 18.7318 9.83689 18.7452 9.87736 18.7519C9.91584 18.7584 9.95383 18.7584 9.9976 18.7584H10.0002H10.0027C10.0465 18.7584 10.0845 18.7584 10.123 18.7519C10.1634 18.7452 10.2026 18.7318 10.2517 18.7072L10.2517 18.7073L10.2538 18.7061L16.2121 15.3603L16.2122 15.3603L16.2134 15.3596C16.4624 15.2102 16.5678 14.9058 16.4139 14.6493C16.2646 14.4005 15.9606 14.2951 15.7043 14.4484L10.0002 17.6427L4.29606 14.4484C4.03969 14.2951 3.73573 14.4005 3.58645 14.6493C3.43255 14.9058 3.53794 15.2102 3.78694 15.3596L3.78693 15.3596L3.78818 15.3603L9.74651 18.7061ZM11.3494 3.07623L11.3494 3.07625L11.3505 3.07686L16.8252 6.17916V12.75C16.8252 12.8989 16.875 13.0268 16.9658 13.1177C17.0567 13.2085 17.1846 13.2584 17.3335 13.2584C17.4824 13.2584 17.6103 13.2085 17.7011 13.1177C17.792 13.0268 17.8418 12.8989 17.8418 12.75V5.87503C17.8418 5.6723 17.7394 5.52027 17.5904 5.42092L17.5905 5.4208L17.5871 5.4189L11.8586 2.21092C11.6037 2.0585 11.3017 2.16184 11.1518 2.36169L11.1516 2.36153L11.149 2.36597C10.995 2.62248 11.1004 2.92683 11.3494 3.07623ZM2.41323 5.4189L2.41316 5.41877L2.40993 5.42092C2.2609 5.52027 2.1585 5.6723 2.1585 5.87503V12.75C2.1585 12.8989 2.20834 13.0268 2.29918 13.1177C2.39003 13.2085 2.51797 13.2584 2.66683 13.2584C2.81569 13.2584 2.94363 13.2085 3.03448 13.1177C3.12532 13.0268 3.17516 12.8989 3.17516 12.75V6.17937L8.64954 3.12285L8.64955 3.12287L8.65089 3.12207C8.89989 2.97267 9.00528 2.66832 8.85137 2.4118C8.7021 2.16301 8.39814 2.05759 8.14176 2.21092L2.41323 5.4189ZM9.7458 13.664L9.74575 13.6641L9.74864 13.6656C9.79772 13.6901 9.83689 13.7035 9.87736 13.7103C9.91585 13.7167 9.95385 13.7167 9.99763 13.7167H10.0002H10.0027C10.0465 13.7167 10.0845 13.7167 10.123 13.7103C10.1634 13.7035 10.2026 13.6901 10.2517 13.6656L10.2517 13.6657L10.2545 13.664L13.0045 12.0599L13.0046 12.06L13.0071 12.0583C13.1561 11.9589 13.2585 11.8069 13.2585 11.6042V8.39586C13.2585 8.19313 13.1561 8.04111 13.0071 7.94176L13.0071 7.94168L13.0045 7.94017L10.2558 6.33674C10.1021 6.23501 9.89826 6.23501 9.74454 6.33674L6.9958 7.94017L6.99576 7.94009L6.99326 7.94176C6.84424 8.04111 6.74183 8.19313 6.74183 8.39586V11.6042C6.74183 11.8069 6.84424 11.9589 6.99326 12.0583L6.99321 12.0584L6.9958 12.0599L9.7458 13.664ZM12.2418 11.3004L10.0002 12.6006L7.7585 11.3004V8.65383L10.0002 7.35366L12.2418 8.65383V11.3004Z" fill="#C2C0CC" stroke="#C2C0CC" stroke-width="0.1"/>
    <path d="M15.7042 13.6642L15.7042 13.6643L15.7067 13.6656C15.7558 13.6901 15.795 13.7035 15.8354 13.7103C15.8739 13.7167 15.9119 13.7167 15.9557 13.7167H15.9582C16.0371 13.7167 16.1254 13.6907 16.2054 13.6477C16.2855 13.6045 16.3611 13.5421 16.4123 13.4652L16.4132 13.4658L16.4171 13.4561C16.5152 13.2109 16.469 12.9065 16.2131 12.7529L16.2122 12.7524L13.0039 10.9191L13.0041 10.9187L12.9976 10.9161C12.7525 10.818 12.4481 10.8642 12.2945 11.1201L12.294 11.1198L12.291 11.1273C12.1929 11.3724 12.2391 11.6768 12.495 11.8304L12.4959 11.8309L15.7042 13.6642ZM3.58618 13.4632L3.58613 13.4633L3.58745 13.4652C3.63871 13.5421 3.71427 13.6045 3.79441 13.6477C3.87433 13.6907 3.96266 13.7167 4.04156 13.7167H4.04409C4.08787 13.7167 4.12587 13.7167 4.16436 13.7103C4.20483 13.7035 4.244 13.6901 4.29308 13.6656L4.29312 13.6656L4.29553 13.6642L7.50386 11.8309L7.50387 11.8309L7.50478 11.8304C7.75378 11.681 7.85917 11.3766 7.70527 11.1201C7.55595 10.8713 7.25188 10.7658 6.99546 10.9193C6.99531 10.9194 6.99515 10.9195 6.995 10.9196L3.78758 12.7524L3.78758 12.7524L3.78667 12.753C3.53766 12.9024 3.43227 13.2067 3.58618 13.4632ZM9.49156 6.79167C9.49156 6.94053 9.5414 7.06847 9.63224 7.15931C9.72309 7.25016 9.85103 7.3 9.99989 7.3C10.1488 7.3 10.2767 7.25016 10.3675 7.15931C10.4584 7.06847 10.5082 6.94053 10.5082 6.79167V3.58333C10.5082 3.43447 10.4584 3.30653 10.3675 3.21569C10.2767 3.12484 10.1488 3.075 9.99989 3.075C9.85103 3.075 9.72309 3.12484 9.63224 3.21569C9.5414 3.30653 9.49156 3.43447 9.49156 3.58333V6.79167Z" fill="#C2C0CC" stroke="#C2C0CC" stroke-width="0.1"/>
    <path d="M8.11683 2.20833C8.11683 3.24428 8.96421 4.09167 10.0002 4.09167C11.0361 4.09167 11.8835 3.24428 11.8835 2.20833C11.8835 1.17239 11.0361 0.325 10.0002 0.325C8.96421 0.325 8.11683 1.17239 8.11683 2.20833ZM9.1335 2.20833C9.1335 1.73178 9.52361 1.34167 10.0002 1.34167C10.4767 1.34167 10.8668 1.73178 10.8668 2.20833C10.8668 2.68489 10.4767 3.075 10.0002 3.075C9.52361 3.075 9.1335 2.68489 9.1335 2.20833ZM0.783496 14.125C0.783496 15.1609 1.63088 16.0083 2.66683 16.0083C3.70278 16.0083 4.55016 15.1609 4.55016 14.125C4.55016 13.0891 3.70278 12.2417 2.66683 12.2417C1.63088 12.2417 0.783496 13.0891 0.783496 14.125ZM1.80016 14.125C1.80016 13.6484 2.19028 13.2583 2.66683 13.2583C3.14338 13.2583 3.5335 13.6484 3.5335 14.125C3.5335 14.6016 3.14338 14.9917 2.66683 14.9917C2.19028 14.9917 1.80016 14.6016 1.80016 14.125ZM15.4502 14.125C15.4502 15.1609 16.2975 16.0083 17.3335 16.0083C18.3694 16.0083 19.2168 15.1609 19.2168 14.125C19.2168 13.0891 18.3694 12.2417 17.3335 12.2417C16.2975 12.2417 15.4502 13.0891 15.4502 14.125ZM16.4668 14.125C16.4668 13.6484 16.8569 13.2583 17.3335 13.2583C17.81 13.2583 18.2002 13.6484 18.2002 14.125C18.2002 14.6016 17.81 14.9917 17.3335 14.9917C16.8569 14.9917 16.4668 14.6016 16.4668 14.125Z" fill="#C2C0CC" stroke="#C2C0CC" stroke-width="0.1"/>
</svg>