<svg width="16" height="18" viewBox="0 0 16 18" fill="none" xmlns="http://www.w3.org/2000/svg">
    <path d="M14.8899 4.17549L8.64195 0.433827C8.44437 0.315508 8.22224 0.256348 8.00013 0.256348C7.77406 0.256302 7.55223 0.317645 7.3583 0.433827L1.11034 4.17549C0.92511 4.28642 0.771794 4.44346 0.66534 4.63129C0.558887 4.81912 0.502931 5.03134 0.50293 5.24724V12.8831C0.50293 13.1024 0.560652 13.3178 0.670295 13.5077C0.779938 13.6976 0.937639 13.8553 1.12755 13.9649L7.37551 17.5722C7.56876 17.6838 7.78445 17.7396 8.00013 17.7396C8.2158 17.7396 8.43149 17.6838 8.62474 17.5722L14.8727 13.9649C15.0626 13.8553 15.2203 13.6976 15.33 13.5077C15.4396 13.3178 15.4973 13.1024 15.4973 12.8831V5.24724C15.4973 5.03134 15.4414 4.81912 15.3349 4.63129C15.2285 4.44345 15.0751 4.28641 14.8899 4.17549ZM8.00013 1.50556L13.6403 4.88325L7.99457 8.26662L2.35779 4.88455L8.00013 1.50556ZM1.75216 5.97801L7.36977 9.34858V16.1264L1.75216 12.883V5.97801ZM8.61901 16.133V9.34878L14.2481 5.97541V12.883L8.61901 16.133Z" fill="#C2C0CC"/>
</svg>