<svg width="24" height="24" viewBox="0 0 24 24" fill="none" xmlns="http://www.w3.org/2000/svg">
    <path d="M12 18C11.7 18 11.5 17.9 11.3 17.7L6.3 12.7C5.9 12.3 5.9 11.7 6.3 11.3C6.7 10.9 7.3 10.9 7.7 11.3L12 15.6L21.3 6.3C21.7 5.9 22.3 5.9 22.7 6.3C23.1 6.7 23.1 7.3 22.7 7.7L12.7 17.7C12.5 17.9 12.3 18 12 18Z" fill="#08CA90"/>
    <path d="M11.9 13.1C11.6 13.1 11.4 13 11.2 12.8C10.8 12.4 10.8 11.8 11.2 11.4L16.3 6.3C16.7 5.9 17.3 5.9 17.7 6.3C18.1 6.7 18.1 7.3 17.7 7.7L12.6 12.8C12.4 13 12.1 13.1 11.9 13.1ZM7 18C6.7 18 6.5 17.9 6.3 17.7L1.3 12.7C0.9 12.3 0.9 11.7 1.3 11.3C1.7 10.9 2.3 10.9 2.7 11.3L7.7 16.3C8.1 16.7 8.1 17.3 7.7 17.7C7.5 17.9 7.3 18 7 18Z" fill="#08CA90"/>
</svg>