<svg width="14" height="14" viewBox="0 0 14 14" fill="none" xmlns="http://www.w3.org/2000/svg">
    <path d="M4.33831e-09 5.47598C-2.02732e-05 5.18039 0.0710438 4.88913 0.207198 4.62677C0.343353 4.36441 0.540605 4.13863 0.782318 3.96849L5.9437 0.335985C6.25431 0.117345 6.62488 0 7.00473 0C7.38458 0 7.75515 0.117345 8.06576 0.335985L13.2271 3.96849C13.4689 4.13867 13.6662 4.3645 13.8023 4.62693C13.9385 4.88937 14.0095 5.1807 14.0095 5.47635V12.1567C14.0095 12.6455 13.8152 13.1144 13.4696 13.4601C13.1239 13.8058 12.655 14 12.1661 14H1.84335C1.35446 14 0.8856 13.8058 0.539905 13.4601C0.19421 13.1144 8.92162e-09 12.6455 4.33831e-09 12.1567V5.47598ZM1.10601 5.47598V12.1567C1.10601 12.3522 1.18369 12.5398 1.32197 12.678C1.46025 12.8163 1.6478 12.894 1.84335 12.894H12.1661C12.3617 12.894 12.5492 12.8163 12.6875 12.678C12.8258 12.5398 12.9035 12.3522 12.9035 12.1567V5.47598C12.9035 5.35771 12.875 5.24118 12.8206 5.1362C12.7661 5.03123 12.6872 4.9409 12.5904 4.87284L7.42907 1.24033C7.30484 1.15291 7.15664 1.10599 7.00473 1.10599C6.85282 1.10599 6.70462 1.15291 6.58039 1.24033L1.41901 4.87284C1.32224 4.94094 1.24328 5.03132 1.1888 5.13637C1.13432 5.24141 1.10593 5.35802 1.10601 5.47635V5.47598ZM7.55774 11.235C7.55774 11.3816 7.49947 11.5223 7.39576 11.626C7.29206 11.7297 7.1514 11.788 7.00473 11.788C6.85806 11.788 6.71741 11.7297 6.6137 11.626C6.50999 11.5223 6.45173 11.3816 6.45173 11.235V8.28562C6.45173 8.13895 6.50999 7.99829 6.6137 7.89458C6.71741 7.79087 6.85806 7.73261 7.00473 7.73261C7.1514 7.73261 7.29206 7.79087 7.39576 7.89458C7.49947 7.99829 7.55774 8.13895 7.55774 8.28562V11.235Z" fill="white"/>
    <path d="M4.33831e-09 5.47598C-2.02732e-05 5.18039 0.0710438 4.88913 0.207198 4.62677C0.343353 4.36441 0.540605 4.13863 0.782318 3.96849L5.9437 0.335985C6.25431 0.117345 6.62488 0 7.00473 0C7.38458 0 7.75515 0.117345 8.06576 0.335985L13.2271 3.96849C13.4689 4.13867 13.6662 4.3645 13.8023 4.62693C13.9385 4.88937 14.0095 5.1807 14.0095 5.47635V12.1567C14.0095 12.6455 13.8152 13.1144 13.4696 13.4601C13.1239 13.8058 12.655 14 12.1661 14H1.84335C1.35446 14 0.8856 13.8058 0.539905 13.4601C0.19421 13.1144 8.92162e-09 12.6455 4.33831e-09 12.1567V5.47598ZM1.10601 5.47598V12.1567C1.10601 12.3522 1.18369 12.5398 1.32197 12.678C1.46025 12.8163 1.6478 12.894 1.84335 12.894H12.1661C12.3617 12.894 12.5492 12.8163 12.6875 12.678C12.8258 12.5398 12.9035 12.3522 12.9035 12.1567V5.47598C12.9035 5.35771 12.875 5.24118 12.8206 5.1362C12.7661 5.03123 12.6872 4.9409 12.5904 4.87284L7.42907 1.24033C7.30484 1.15291 7.15664 1.10599 7.00473 1.10599C6.85282 1.10599 6.70462 1.15291 6.58039 1.24033L1.41901 4.87284C1.32224 4.94094 1.24328 5.03132 1.1888 5.13637C1.13432 5.24141 1.10593 5.35802 1.10601 5.47635V5.47598ZM7.55774 11.235C7.55774 11.3816 7.49947 11.5223 7.39576 11.626C7.29206 11.7297 7.1514 11.788 7.00473 11.788C6.85806 11.788 6.71741 11.7297 6.6137 11.626C6.50999 11.5223 6.45173 11.3816 6.45173 11.235V8.28562C6.45173 8.13895 6.50999 7.99829 6.6137 7.89458C6.71741 7.79087 6.85806 7.73261 7.00473 7.73261C7.1514 7.73261 7.29206 7.79087 7.39576 7.89458C7.49947 7.99829 7.55774 8.13895 7.55774 8.28562V11.235Z" fill="url(#paint0_linear_2555_15163)"/>
    <defs>
    <linearGradient id="paint0_linear_2555_15163" x1="7.00473" y1="2.90014e-08" x2="5.05946" y2="34.4969" gradientUnits="userSpaceOnUse">
    <stop stop-color="white"/>
    <stop offset="1" stop-color="#6A3BE4" stop-opacity="0.21"/>
    </linearGradient>
    </defs>
</svg>
    