<svg width="102" height="32" viewBox="0 0 102 32" fill="none" xmlns="http://www.w3.org/2000/svg">
    <rect width="102" height="32" rx="4" fill="#0A0A1C"/>
    <rect width="102" height="32" rx="4" fill="url(#paint0_radial_3722_2010)" fill-opacity="0.3"/>
    <rect x="0.5" y="0.5" width="101" height="31" rx="3.5" stroke="#6E3FDF" stroke-opacity="0.4"/>
    <path d="M31.008 22V9.04H33.616C34.48 9.04 35.1947 9.15733 35.76 9.392C36.3253 9.616 36.7413 9.984 37.008 10.496C37.2853 10.9973 37.424 11.6587 37.424 12.48C37.424 12.9813 37.3707 13.44 37.264 13.856C37.1573 14.2613 36.9867 14.608 36.752 14.896C36.5173 15.1733 36.208 15.376 35.824 15.504L37.664 22H35.92L34.224 15.92H32.816V22H31.008ZM32.816 14.624H33.504C34.016 14.624 34.432 14.56 34.752 14.432C35.072 14.304 35.3067 14.0853 35.456 13.776C35.6053 13.4667 35.68 13.0347 35.68 12.48C35.68 11.7227 35.5413 11.1787 35.264 10.848C34.9867 10.5067 34.4373 10.336 33.616 10.336H32.816V14.624ZM41.7209 22.128C40.9955 22.128 40.4355 21.9893 40.0409 21.712C39.6462 21.424 39.3689 21.008 39.2089 20.464C39.0595 19.9093 38.9849 19.232 38.9849 18.432V16.32C38.9849 15.4987 39.0649 14.816 39.2249 14.272C39.3849 13.728 39.6622 13.3173 40.0569 13.04C40.4622 12.7627 41.0169 12.624 41.7209 12.624C42.4995 12.624 43.0702 12.784 43.4329 13.104C43.8062 13.424 44.0515 13.888 44.1689 14.496C44.2862 15.0933 44.3449 15.8133 44.3449 16.656V17.408H40.6969V19.264C40.6969 19.6373 40.7289 19.9413 40.7929 20.176C40.8675 20.4107 40.9795 20.5867 41.1289 20.704C41.2889 20.8107 41.4915 20.864 41.7369 20.864C41.9929 20.864 42.1849 20.8053 42.3129 20.688C42.4515 20.56 42.5422 20.384 42.5849 20.16C42.6382 19.9253 42.6649 19.6533 42.6649 19.344V18.784H44.3289V19.136C44.3289 20.064 44.1315 20.7947 43.7369 21.328C43.3422 21.8613 42.6702 22.128 41.7209 22.128ZM40.6969 16.48H42.6649V15.648C42.6649 15.264 42.6435 14.944 42.6009 14.688C42.5582 14.4213 42.4675 14.224 42.3289 14.096C42.2009 13.9573 41.9929 13.888 41.7049 13.888C41.4275 13.888 41.2142 13.952 41.0649 14.08C40.9262 14.208 40.8302 14.4267 40.7769 14.736C40.7235 15.0347 40.6969 15.4507 40.6969 15.984V16.48ZM46.9673 22L45.4793 12.752H46.8873L47.8473 19.568L49.0793 12.752H50.3913L51.6233 19.536L52.5833 12.752H53.9913L52.4553 22H51.0153L49.7513 15.472L48.5033 22H46.9673ZM56.9655 22.128C56.6028 22.128 56.2828 22.0267 56.0055 21.824C55.7282 21.6107 55.5095 21.344 55.3495 21.024C55.1895 20.6933 55.1095 20.3467 55.1095 19.984C55.1095 19.408 55.2055 18.9227 55.3975 18.528C55.5895 18.1333 55.8508 17.8027 56.1815 17.536C56.5228 17.2587 56.9122 17.0187 57.3495 16.816C57.7975 16.6133 58.2668 16.416 58.7575 16.224V15.568C58.7575 15.1947 58.7362 14.8853 58.6935 14.64C58.6508 14.3947 58.5602 14.2133 58.4215 14.096C58.2935 13.968 58.0962 13.904 57.8295 13.904C57.5948 13.904 57.4028 13.9573 57.2535 14.064C57.1148 14.1707 57.0135 14.3253 56.9495 14.528C56.8855 14.72 56.8535 14.9493 56.8535 15.216V15.68L55.1575 15.616C55.1788 14.592 55.4135 13.84 55.8615 13.36C56.3095 12.8693 57.0028 12.624 57.9415 12.624C58.8588 12.624 59.5095 12.8747 59.8935 13.376C60.2775 13.8773 60.4695 14.6027 60.4695 15.552V19.776C60.4695 20.064 60.4748 20.3413 60.4855 20.608C60.5068 20.8747 60.5282 21.1253 60.5495 21.36C60.5815 21.584 60.6082 21.7973 60.6295 22H59.0615C59.0295 21.8293 58.9868 21.616 58.9335 21.36C58.8908 21.0933 58.8588 20.8533 58.8375 20.64C58.7308 21.0027 58.5228 21.344 58.2135 21.664C57.9148 21.9733 57.4988 22.128 56.9655 22.128ZM57.6375 20.656C57.8082 20.656 57.9682 20.608 58.1175 20.512C58.2668 20.416 58.4002 20.3093 58.5175 20.192C58.6348 20.064 58.7148 19.9627 58.7575 19.888V17.264C58.4908 17.4133 58.2402 17.5627 58.0055 17.712C57.7708 17.8613 57.5628 18.0213 57.3815 18.192C57.2108 18.352 57.0722 18.5387 56.9655 18.752C56.8695 18.9547 56.8215 19.1893 56.8215 19.456C56.8215 19.8293 56.8908 20.1227 57.0295 20.336C57.1682 20.5493 57.3708 20.656 57.6375 20.656ZM62.162 22V12.752H63.874V14.064C64.2153 13.4987 64.5567 13.12 64.898 12.928C65.2393 12.736 65.5807 12.64 65.922 12.64C65.9647 12.64 66.002 12.64 66.034 12.64C66.0767 12.64 66.13 12.6453 66.194 12.656V14.544C66.066 14.4907 65.9167 14.448 65.746 14.416C65.586 14.3733 65.4207 14.352 65.25 14.352C64.9833 14.352 64.738 14.416 64.514 14.544C64.3007 14.6613 64.0873 14.896 63.874 15.248V22H62.162ZM69.3986 22.128C68.62 22.128 68.0386 21.8453 67.6546 21.28C67.2706 20.704 67.0786 19.7333 67.0786 18.368V16.576C67.0786 15.872 67.1373 15.2213 67.2546 14.624C67.372 14.016 67.5906 13.5307 67.9106 13.168C68.2413 12.8053 68.7213 12.624 69.3506 12.624C69.66 12.624 69.9426 12.6933 70.1986 12.832C70.4546 12.9707 70.684 13.1413 70.8866 13.344V9.04H72.5986V22H70.8866V21.408C70.684 21.6213 70.46 21.7973 70.2146 21.936C69.98 22.064 69.708 22.128 69.3986 22.128ZM69.8306 20.784C69.9906 20.784 70.1613 20.7573 70.3426 20.704C70.524 20.64 70.7053 20.5493 70.8866 20.432V14.368C70.7373 14.2613 70.572 14.1707 70.3906 14.096C70.2093 14.0107 70.012 13.968 69.7986 13.968C69.404 13.968 69.1373 14.16 68.9986 14.544C68.86 14.9173 68.7906 15.3707 68.7906 15.904V18.512C68.7906 18.9387 68.812 19.328 68.8546 19.68C68.908 20.0213 69.0093 20.2933 69.1586 20.496C69.308 20.688 69.532 20.784 69.8306 20.784Z" fill="white"/>
    <defs>
    <radialGradient id="paint0_radial_3722_2010" cx="0" cy="0" r="1" gradientUnits="userSpaceOnUse" gradientTransform="translate(51 16) rotate(-90) scale(15 47.8125)">
    <stop stop-color="#6E3FDF"/>
    <stop offset="1" stop-color="#0A0A1C"/>
    </radialGradient>
    </defs>
</svg>