<svg width="32" height="32" viewBox="0 0 32 32" fill="none" xmlns="http://www.w3.org/2000/svg">
<path d="M19.8877 20.854L14.4903 21.2158L12.6656 26.2453L18.2135 25.5219L19.8877 20.854Z" fill="black"/>
<path d="M14.4903 21.2158L19.8877 20.854L18.2135 25.5219L12.6656 26.2453" stroke="white" stroke-width="0.28"/>
<path d="M14.4901 21.216L12.7186 26.2746L8.88191 22.1395L10.5518 17.5057L14.4901 21.216Z" fill="black" stroke="white" stroke-width="0.28"/>
<path fill-rule="evenodd" clip-rule="evenodd" d="M8.88232 22.1394C9.8801 21.9215 10.7322 21.7154 11.7734 21.4724L12.6702 26.2113L11.9791 21.1929C10.8603 21.4735 9.98938 21.745 8.88232 22.1394Z" fill="#996EFF"/>
<path d="M12.6384 20.6507L10.9547 20.843L11.147 22.5267L12.6213 21.9271L12.6384 20.6507Z" fill="black"/>
<path d="M19.9047 20.8368L15.9409 17.2119L10.5704 17.4756" stroke="white" stroke-width="0.28"/>
<path fill-rule="evenodd" clip-rule="evenodd" d="M14.4033 21.2219L11.2822 22.4654L10.5969 17.5632L11.0977 22.8226L14.4033 21.2219Z" fill="#996EFF"/>
<path d="M17.689 20.9866L13.7847 17.2806L12.7171 17.3684L16.6065 21.0551L17.689 20.9866Z" fill="#996EFF"/>
<path d="M17.5203 18.6618L12.0486 18.9275L12.8468 19.7229L18.2739 19.3995L17.5203 18.6618Z" fill="#996EFF"/>
<path d="M24.5537 15.4108L15.3354 19.0906" stroke="#996EFF" stroke-width="0.219868"/>
<path d="M23.1567 13.4822L15.3545 19.0759" stroke="#996EFF" stroke-width="0.219868"/>
<path d="M19.9067 12.0941L15.3789 19.0309" stroke="#996EFF" stroke-width="0.219868"/>
<path d="M16.2349 10.7559L15.3356 19.0906" stroke="#996EFF" stroke-width="0.219868"/>
<path d="M12.8062 9.8125L15.3354 19.0906" stroke="#996EFF" stroke-width="0.219868"/>
<path d="M10.5397 10.3349L15.3353 19.0907" stroke="#996EFF" stroke-width="0.219868"/>
<path d="M17.3261 13.4419C13.7261 12.2013 10.7473 10.604 9.91514 9.80422C9.91514 9.80422 10.0176 9.3039 10.2396 9.03209C11.5244 7.79477 14.1099 8.56037 17.4137 9.26252C21.4763 10.3913 25.7314 14.8697 25.4744 15.2522C24.8355 15.7761 22.1554 15.106 17.3261 13.4419Z" fill="#7E7474" fill-opacity="0.2"/>
<mask id="mask0_777_10207" style="mask-type:alpha" maskUnits="userSpaceOnUse" x="9" y="8" width="17" height="8">
<path d="M17.3261 13.4419C13.7261 12.2013 10.7473 10.604 9.91514 9.80422C9.91514 9.80422 10.0176 9.3039 10.2396 9.03209C11.5244 7.79477 14.1099 8.56037 17.4137 9.26252C21.4763 10.3913 25.7314 14.8697 25.4744 15.2522C24.8355 15.7761 22.1554 15.106 17.3261 13.4419Z" fill="#DCC5C5" fill-opacity="0.2"/>
</mask>
<g mask="url(#mask0_777_10207)">
<path d="M24.2944 12.1739C24.9762 13.3353 24.7064 14.8937 24.561 15.6196C24.0124 15.5317 22.7025 15.287 22.047 15.1056C22.2271 14.7825 22.7691 12.1855 23.0615 10.8551C23.2382 10.8721 23.7073 11.1738 24.2944 12.1739Z" fill="#996EFF"/>
<path d="M12.1707 8.42692C11.1406 8.95955 10.4005 10.4963 10.1191 11.181C10.6244 11.412 11.9449 11.9447 12.591 12.1571C12.6402 11.5054 13.9307 9.28178 14.4694 8.19088C14.3128 8.10703 13.2009 7.89429 12.1707 8.42692Z" fill="#996EFF"/>
<path d="M19.7257 12.0189L16.4537 10.8014C16.11 11.5883 16.0129 11.9395 15.6753 12.8138L19.0687 14.0297L19.4387 13.0383L19.7257 12.0189Z" fill="#ABFF4C" fill-opacity="0.6"/>
</g>
<path d="M20.8282 4.8468C26.6417 7.57585 26.3947 12.9053 25.5349 15.2363C24.7185 14.1788 22.3194 12.9931 18.5816 11.6748C15.9897 10.7607 11.8612 9.13041 9.98704 9.56462C10.9921 6.7328 15.3909 2.69259 20.8282 4.8468Z" fill="#996EFF"/>
<path d="M19.8685 12.1239C21.3364 8.68323 21.2971 5.86597 20.6896 4.80075C21.1638 5.01762 21.7958 5.51165 22.2021 5.9651C24.1525 8.14165 23.6327 11.9387 23.1291 13.5651C23.132 13.5424 22.484 13.2224 19.8685 12.1239Z" fill="black" stroke="black" stroke-width="0.219868"/>
<path d="M16.1829 10.8263C17.3587 7.34107 19.1765 5.10308 20.322 4.66535C19.8178 4.532 19.0159 4.51278 18.4141 4.6054C15.5256 5.04996 13.5146 8.24899 12.8464 9.80809C12.9064 9.83888 13.8419 10.049 16.1829 10.8263Z" fill="black"/>
</svg>
